<?xml version="1.0" encoding="UTF-8"?>
<svg id="Layer_2" data-name="Layer 2" xmlns="http://www.w3.org/2000/svg" viewBox="0 0 257.81 257.81">
  <defs>
    <style>
      .cls-1 {
        fill: #21409a;
      }
    </style>
  </defs>
  <g id="Layer_1-2" data-name="Layer 1">
    <g>
      <g>
        <g>
          <path class="cls-1" d="M90.28,89.23c-.16.18-.36.33-.6.34-.08,0-.17.04-.23.09-.59.5-1.81,1.44-3.35,2.15,0,0,0,0,0,0,0,0,0,0,0,0-1.57.72-3.07,1.03-4.48.92-3.16-.25-5.96-1.67-7.43-2.55-.02-.04-.06-.07-.09-.1-.18-.13-.42-.1-.55.08,0,.01-.02.03-.04.05-.24.33-.55.43-.99.33,0,0-.01,0-.02,0-.93-.22-2.15-1.23-3.33-2.26-.17-.7-.26-1.58.18-2.03.58-.57,1.85-.29,2.22-.19.32.09.7.32.7.32.19.12.43.06.55-.13.12-.19.06-.43-.13-.55-.01,0-.15-.09-.34-.19.62-.5,1.33-.35,1.42-.33.2.05.4-.06.46-.26.07-.19-.02-.4-.21-.49-.03-.01-.71-.35-1.9-2.06-.48-.97-.42-1.86.17-2.64.51-.15,1.01-.33,1.49-.55,1.07-.47,2.07-1.1,2.95-1.86.69-.59,1.21-1.17,1.56-1.63.17.04,2.04.52,3.41,1.03,0-.07,0-.13,0-.19-1.72-.17-2.15-1.3-2.16-1.33-.3-.08-.56-.15-.75-.2.1-.15.15-.24.15-.26.06-.11.06-.25,0-.36-.06-.11-.16-.2-.29-.22-2.15-.37-4.46-.67-6.78-.3-2.39.38-4.56,1.41-6.83,3.24-2.58,2.07-2.81,4.44-2.56,6.05.28,1.73,1.15,2.96,1.19,3.01.08.11.2.16.32.16.05,0,.11-.01.16-.03.17-.08.27-.26.23-.45,0-.02-.36-1.71.45-3.23-.04.43-.05.88-.01,1.34.1,1.36.57,2.33,1.41,2.89.57.38,1.28,1,2.02,1.66.09.08.18.16.28.24,0,0,0,0,0,0,0,0,0,0,0,0,1.26,1.1,2.58,2.2,3.7,2.5,1.94,1.5,5.04,4.46,4.61,7.72,0,.07,0,.13.02.19-.7.19-1.48.43-2.29.76-1.6.65-2.97,1.47-4.08,2.45-1.4,1.24-2.38,2.73-2.92,4.44-.02.07-.04.14-.05.2-.43.38-1.03.94-1.71,1.63,0,0-.01,0-.02,0-.14-.87-.13-1.27-.1-1.37.02-.05.02-.11.02-.16-.02-.2-.13-.38-.3-.48-.41-.26-1.1-.05-1.3.02-.09.03-.17.1-.22.18-.02.04-.49.91-.37,1.78-.67.39-.84,1.24-.77,2.02-.09.11-.19.25-.28.37-.21-.03-.64-.18-1.3-.47-.14-.06-.24-.1-.3-.12-.16-.06-.34-.04-.48.06-.49.33-.55,1.51-.55,1.52,0,0,0,0,0,0-.01.58.82.75,1.22.83.35.07.76.13,1.14.17-1.28,1.93-2.05,3.74-2.29,5.39-.17,1.22-.05,2.31.36,3.25.39.87,1.03,1.58,1.87,2.07.85.49,1.89.75,3.01.75.34,0,.69-.02,1.05-.07,1.56-.22,3.11-.89,4.47-1.94,0,0,0,0,0,0,.03-.02.05-.04.08-.06.03-.02.05-.04.08-.06.66-.51,1.29-1.03,1.89-1.53.5-.42,1.01-.85,1.54-1.33.46-.41.94-.84,1.47-1.33.57-.53,1.15-1.09,1.73-1.66.46-.45.87-.86,1.27-1.27,0,0,0,0,0,0,.58-.59,1.17-1.2,1.76-1.82,0,0,0,0,0,0,.44-.46.87-.93,1.33-1.43h0s0,0,0,0c.29-.31.57-.63.85-.93.09-.02.18-.05.27-.07,1.21.79,2.36,1.37,3.42,1.74.83.29,1.54.69,2.13,1.21,1.82,1.6,3.63,3.87,4.46,4.97-.2.38-.5,1.11-.24,1.86.25.72.94,1.23,2.04,1.53.05.01.09.02.14.04-.15.69.17,1.31.93,1.71h0c-.21.73-.51,2.01-.49,3.36.01.94.18,1.78.49,2.48.38.86.98,1.53,1.78,1.99-.01.12-.03.24-.03.35-.09,1.42.28,2.78,1.11,4.02.61.92,1.52,1.63,2.69,2.12,1.04.43,2.26.67,3.64.72.15,0,.31,0,.46,0,2.09,0,4.39-.45,6.37-1.25-.36.93-1.09,1.56-2.24,1.89-1.47.43-3.42.16-5.68-.15-2.3-.32-4.9-.68-7.65-.39-3.19.34-5.99,1.49-8.55,3.54-4.02,3.21-6.05,6.48-6.19,9.98-.06,1.53.23,3.08.88,4.74.55,1.4,1.37,2.88,2.5,4.54.25.36.33.65.24.87-.24.61-1.7.95-2.77,1.19-.78.18-1.4.32-1.74.56-.75.54-1.18,1.19-1.31,2-.18,1.11.19,2.47,1.14,4.14,0,0-.02,0-.03,0-.39.12-1.05.32-1.77.88-.86.67-1.6,1.68-2.21,3.01-.08.18-.02.4.15.5.06.04.14.06.21.06.12,0,.23-.05.31-.15.46-.58,1.99-2.16,2.98-1.81.26.09.54.18.84.17,1.07-.02,1.95-.55,2.41-1.44.45-.87.41-1.93-.08-2.73-.01-.33.11-.49.2-.59.6-.61,2.42-.55,4.12-.42,1.32.1,2.91-.64,4.26-2,1.37-1.38,2.37-3.28,2.86-5.41,2.53,2.08,5.48,2.56,5.61,2.58.01,0,.02,0,.03,0,.71.05,1.18.22,1.36.47.22.31.07.88-.07,1.43-.11.4-.22.8-.21,1.19,0,0,0,.02,0,.02.13,1.73.6,2.9,1.43,3.57.74.59,1.63.68,2.34.75.93.1,1.29.18,1.42.65.04.19.07.43.1.69.08.76.18,1.7.87,2.22.32.24.72.36,1.2.36.2,0,.43-.02.66-.06.18-.03.32-.19.33-.37,0-.19-.11-.35-.29-.4-.24-.07-.39-.15-.43-.25-.09-.23.23-.78.49-1.22.42-.72.89-1.53.57-2.26-.22-.5-.75-.83-1.62-1.03,0,0-.02,0-.03,0-.91-.14-1.63-.93-1.74-1.58-.06-.38.09-.67.45-.85.55-.28,1.11-.96,1.53-1.88.42-.9.66-1.92.66-2.79,0-1.2-.46-2.1-1.29-2.53-1.23-.67-1.79-1.56-1.59-2.51.22-1.03,1.27-1.92,2.41-2.01,1.02-.09,6.34-.63,11.36-2.55,2.83-1.08,5.05-2.41,6.61-3.96,1.95-1.93,2.88-4.2,2.76-6.74,0,0,0-.01,0-.02-.07-.71-.15-1.4-.25-2.07.07.02.15.04.22.05,1.13.6,1.91,1.43,2.3,2.48.21,1.43.59,2.41,1.18,3.09.52.59,1.17.91,1.9,1.2.03.18.09.36.18.53-.45,2.26-.41,5.83,2.21,10.3,4.4,7.51,8.18,17.51,8.48,18.3.05.53.48,4.25,2.81,5.84.69.48,1.48.71,2.35.71.53,0,1.09-.09,1.68-.26,0,0,0,0,.01,0,.85-.29,1.2-.94,1.61-1.7.4-.74.9-1.67,2.07-2.67,0,0,0,0,0,0,.01-.01,1.21-1.07,2.81-1.89.14-.07.29-.14.42-.21.69-.34,1.29-.64,1.79-1.18.53-.59.87-1.39,1.09-2.6h0s0,0,0,0c.03-.16.05-.32.08-.53,0-.03,0-.05,0-.07.08-.39.22-.68.37-.81.07-.06.15-.08.25-.07.75.08,1.2-.24,1.45-.52.53-.61.55-1.5.41-2.08-.03-.13-.12-.23-.25-.28-.12-.05-.26-.03-.37.05-.4.28-.71.39-.99.42.03-.14,0-.29-.11-.38-.11-.1-.26-.13-.39-.09-.75.25-1.16.15-1.49.07-.32-.08-.76-.18-1.14.35-.04-.01-.08-.02-.12-.03-.24-.07-.48-.14-.72-.12-.23.02-.43.12-.57.29-.24-.02-.48-.04-.7-.01-.28.04-.46.14-.57.26-.39-.05-.85-.08-1.22.45-.04.05-.06.12-.07.18-.04.35-.34,1.33-.8,2.63-.12.06-.24.13-.36.19-1.13.59-1.68.84-2.48.3-3.27-4.42-4.4-13.35-5.3-20.52-.52-4.15-.95-7.56-1.68-9.46,0,0,0,0,0-.01-.44-1.27-1.14-2.2-2.17-3.41-1.23-1.51-2.72-2.91-4.45-4.17-2.21-1.61-4.4-2.68-5.88-3.31-3.98-9.14-6.49-16.44-7.39-19.17-.37-1.13-1-2.13-1.81-2.9-1.67-1.58-5.15-3.87-9.74-1.46-1.15.54-2.25,1.25-3.28,2.12-.33-2.04-1.34-5.08-5.1-10.44-.41-1.01-1.25-1.97-2.5-2.84,0,0,0,0,0,0-.05-.04-.11-.07-.16-.11.58-.19,1.26-.43,2.03-.74.07-.03.13-.05.2-.08-.46-.24-.54-.27-.8-.53-2.18.86-3.61,1.12-3.64,1.13-.22.04-.36.24-.32.46.03.19.2.33.39.33.02,0,.05,0,.07,0,.03,0,.41-.07,1.07-.25.26.16.5.32.72.46,1.12.78,1.87,1.62,2.22,2.5,0,.01.01.03.02.04,0,0,0,0,0,0,.53,1.39-.12,2.39-.14,2.43-.12.18-.08.43.11.55.07.05.15.07.22.07.13,0,.25-.06.33-.17.02-.04.38-.58.47-1.43,3.13,4.71,3.87,7.34,4.1,9.12-.34.29-.83.86-1.45,1.71-1.42,1.67-2.69,3.71-3.77,6.05-3.45,1.63-6.3,1.85-8.09,1.74-1.65-.1-2.73-.49-3.03-.61-.05-.06-.12-.16-.21-.28h0s0,0,0,0c-.75-1.01-2.72-3.54-4.73-5.3-.66-.58-1.47-1.04-2.39-1.36-.81-.28-1.69-.71-2.61-1.26.53-.12.9-.2,1.06-.22.15-.01.3-.09.49-.24.91.49,2.54,1.19,4.58,1.3,0,0,.01,0,.02,0,.21,0,.38-.16.4-.38.01-.22-.16-.41-.38-.42-1.75-.09-3.18-.65-4.05-1.1.03-.03.05-.06.08-.09.29-.36.64-.83,1.03-1.39.42-.6.81-1.2,1.07-1.6,0,0,0,0,0,0,0,0,0,0,0,0,.15-.23.3-.46.35-.55.1-.15.24-.37.4-.64.46-.22,1.14-.53,1.47-.62.68-.18.91-1.12,1.07-1.8.03-.14.07-.28.09-.37,0-.01,0-.03.01-.04.09-.46-.05-.89-.39-1.19-.29-.25-.7-.4-1.19-.42-.24-.55-.65-.95-1.11-1.07-.06-.02-.16-.04-.34-.02,0-.02-.01-.04-.02-.06-.2-.54-.89-.82-1.18-.91-.13-.04-.27-.06-.44-.05-.19-.63-.67-1.06-1.33-1.2-.65-.14-1.35.04-1.66.43-.01.01-.03.03-.04.06-.03.05-.08.1-.11.14-.11.13-.27.29-.47.46-.09.08-.18.15-.25.22-.13.11-.24.2-.32.26-.27-.02-.54.07-.76.26,0,0,0,0-.01,0,0,0,0,0,0,0-.14.12-.26.27-.36.47-.17.31-.17.72-.02,1.25-.01.03-.02.07-.03.11,0,.02,0,.04,0,.05,0,0,0,0,0,0,0,0,0,0,0,.01,0,0,0,0,0,0-.07.6-.2,1.26-.4,1.95-.14.48-.3.95-.48,1.41-.23.59-.44,1.06-.57,1.35-.12.25-.21.43-.26.52-.03.02-.06.05-.11.09,0,0,0,0,0,0,0,0,0,0,0,0,0,0,0,0,0,0-.17.14-.64.53-1.48,1.12-.57.4-1.2.81-1.88,1.23-.55.34-1.14.69-1.76,1.04,0,0,0,0,0,0-.46.26-.98.55-1.63.89,0,0,0,0,0,0,0,0,0,0,0,0-.27.14-.55.29-.85.45h-.02c-.19.09-.37.16-.55.24-.36.15-.73.32-1.09.49-1.38-1.5-2.71-2.56-3.98-3.17.4-.4.77-.75,1.08-1.03.03.07.07.13.1.19.13.24.2.37.15.55-.06.21.06.43.27.49.04.01.07.02.11.02.17,0,.33-.11.38-.29.14-.5-.05-.86-.21-1.15-.15-.28-.23-.44-.15-.7.89-2.84,3.09-4.99,6.52-6.38,2.59-1.05,4.95-1.25,4.98-1.25.22-.02.38-.21.36-.43-.02-.22-.21-.38-.43-.36-.06,0-.9.07-2.13.35.18-1.58-.32-3.23-1.49-4.88-.69-.98-1.6-1.94-2.7-2.88.17-.07.33-.18.47-.31,1.57.93,4.42,2.33,7.64,2.58.21.02.41.02.62.02,1.2,0,2.45-.26,3.73-.79.05.43.17.94.4,1.44.42.9,1.11,1.55,2.05,1.95.05.02.1.03.15.03.15,0,.3-.09.37-.24.08-.2,0-.43-.21-.52-.17-.07-.32-.15-.47-.24,1.57-1.92,4.2-2.49,6.18-2.62.08,0,.15-.03.21-.08.66-.5,1.7-1.26,3.03-2.09-.3-.18-.56-.33-.77-.45-1.13.73-2.03,1.38-2.65,1.84-1.29.1-2.46.35-3.49.75-1.31.5-2.36,1.23-3.13,2.16-.67-.7-.87-1.6-.92-2.26,1.43-.7,2.58-1.57,3.2-2.08.46-.07.88-.38,1.23-.88-.45-.08-.82-.24-.82-.24ZM65.18,80.99c-.24.21-.46.45-.65.71-.61.82-.87,1.72-.96,2.49-.12-.34-.22-.73-.29-1.14-.32-2.04.45-3.82,2.27-5.28,3.12-2.51,5.88-3.24,8.62-3.24,1.25,0,2.5.15,3.77.36-.32.45-.89,1.17-1.75,1.89-1.3,1.1-3.53,2.47-6.83,2.7-1.77.13-3.16.62-4.15,1.48-.01.01-.02.02-.04.03ZM68.22,87.47c-.56-.48-1.08-.92-1.55-1.23-1.43-.96-1.11-3.54-.86-4.75.85-.7,2.06-1.11,3.61-1.22.62-.04,1.22-.13,1.81-.25-.08.2-.14.4-.18.61-.12.69,0,1.41.37,2.14,0,.02.02.03.03.05.52.76.96,1.28,1.32,1.63-.41.1-.87.33-1.26.79-.71-.16-1.98-.29-2.73.45-.41.41-.6,1-.55,1.77ZM89.21,103.43c-.94-.25-2.01-.69-3.08-1.29.05-.03.09-.06.13-.11.04-.05.08-.09.12-.14.09-.1.2-.19.33-.29,0,0,0,0,0,0,.02-.02.05-.03.08-.06l.02-.02s.09-.06.13-.08c0,0,0,0,.01,0,0,0,0,0,0,0,.25.05.55.14.79.34-.14.18-.26.39-.28.63-.02.22.14.41.36.43.22.02.41-.14.43-.36,0-.02,0-.04.02-.07.02,0,.04.01.06.02,0,0,0,0,0,0,.48.16.79.62.92.85-.02.05-.04.1-.06.16ZM85.8,101.36c-.06.06-.12.13-.17.2-.06.08-.09.17-.08.25-.04-.03-.09-.05-.13-.08-.3-.18-.58-.37-.86-.56.07-.04.13-.1.17-.18.03-.07.07-.14.13-.2.04-.03.08-.08.11-.13.09-.1.2-.2.33-.3.27.11.62.31.9.65-.14.11-.28.23-.39.35ZM89.89,101.75s.01,0,.02,0c.46-.01.77.1.93.24.12.11.17.24.14.41-.03.11-.07.25-.1.4-.06.27-.14.6-.25.86-.13.32-.24.35-.25.35-.09.02-.2.06-.31.1.01-.03.03-.07.03-.1.02-.14-.02-.27-.12-.36.06-.15.11-.31.16-.46,0,0,0,0,0-.01,0,0,0-.02,0-.03.01-.04.03-.09.04-.14.04-.22-.11-.42-.33-.46-.03,0-.07,0-.1,0-.17-.23-.41-.49-.72-.68.32-.09.61-.13.85-.13ZM88.85,100.66c.16.04.31.17.44.36-.29.05-.59.13-.91.24,0,0-.02,0-.03.01-.14-.13-.29-.23-.44-.31.56-.25.85-.3.93-.29ZM87.26,99.65c.42.14.65.34.68.43,0,0,0,0,0,0-.16.06-.35.14-.57.25l-.06.03c-.07.04-.14.07-.21.1-.12.06-.2.1-.22.12,0,0,0,0,0,0-.22-.29-.48-.51-.74-.67.04-.01.07-.03.11-.04.74-.29.98-.23,1.02-.22ZM84.69,98.59s0,0,0-.01c.08-.1.44-.24.88-.15.25.05.57.2.71.59-.11.03-.22.07-.34.12-.19.07-.36.15-.5.22-.25-.3-.53-.52-.81-.69.02-.02.04-.05.05-.07ZM83.23,99.95s.22-.17.49-.39c.08-.07.17-.15.27-.23.03-.03.06-.05.08-.08.22.12.47.28.69.51-.18.14-.33.29-.45.43,0,0,0,0,0,0,0,0,0,0,0,.01,0,0,0,0-.01.01-.11.13-.21.28-.27.43-.01.03-.02.06-.03.09-.33-.26-.62-.5-.86-.73.04-.01.07-.04.11-.06ZM82.42,100.43c1.19,1.23,3.92,3.03,6.46,3.74-.03.06-.06.12-.09.19-2.78-.79-4.87-2.06-6.17-3.02-.18-.44-.22-.74-.19-.91ZM82.38,102.15c1.31.94,3.29,2.1,5.86,2.87-.06.1-.07.22-.03.33-.06.1-.11.18-.16.24-.03.05-.09.13-.16.24-2.33-1.46-4.47-2.26-5.74-2.65.09-.35.17-.7.23-1.04ZM81.93,103.94c1.23.38,3.29,1.15,5.53,2.55-.18.28-.4.61-.63.94-2.33-1.41-4.12-2.29-5.15-2.75.09-.24.17-.49.25-.74ZM81.4,105.43c1.01.46,2.74,1.31,4.99,2.66-.18.25-.34.48-.5.68-1.55-1.27-3.62-2.23-4.76-2.7.08-.18.17-.4.27-.63ZM64.53,107.4c.13-.03.27-.06.36-.06-.02.2-.01.55.07,1.15-.16-.02-.32-.04-.47-.05-.06,0-.13,0-.19,0-.02-.38.11-.79.22-1.04ZM64.11,109.27s0,0,0,0c.1-.03.22-.04.35-.03.21,0,.44.04.67.09,0,0,0,0,0,0h0s0,0,0,0c.02,0,.04,0,.06.01,0,0,0,0,0,0,0,0,0,0,0,0l.82.29s0,0,0,0c.04.02.08.04.12.05h0c1.15.53,2.42,1.51,3.71,2.88-.34.18-.68.36-1,.54-.64-.77-1.9-2.03-3.68-2.5,0,0-.02,0-.03,0-.22-.05-.88-.14-.94-.15h0s0,0,0,0c-.22-.02-.43-.02-.66,0-.01-.4.06-1.03.56-1.17ZM60.65,111.95c.02-.23.09-.5.15-.66.02,0,.05.02.07.03,1.14.49,1.9.77,2.21.28.05-.08.14-.2.25-.35.08,0,.15-.01.23-.02-.29.37-.57.73-.83,1.08-1.42-.14-1.91-.29-2.08-.37ZM65.15,123.72c-.95,0-1.84-.21-2.58-.64-1.48-.86-2.14-2.47-1.85-4.52.24-1.69,1.09-3.57,2.53-5.6.39-.55.82-1.11,1.3-1.68,1.71.28,2.97,1.47,3.62,2.23-.13.08-.24.15-.35.22-.79.51-1.51,1.05-2.12,1.58-2.62,2.31-2.89,4.22-2.9,4.3-.03.22.13.42.34.44.02,0,.03,0,.05,0,.2,0,.37-.15.39-.35,0-.02.2-1.42,2.08-3.28.14.83.42,1.83.94,2.8.74,1.37,1.81,2.36,3.18,2.95-1.47,1.01-3.13,1.55-4.64,1.55ZM70.53,121.62c-3.12-1.09-3.95-4.03-4.16-5.84.43-.36.9-.73,1.42-1.08.45,1.46,1.54,4.04,4.05,5.87-.42.35-.86.7-1.3,1.05ZM72.47,120.04c-2.57-1.79-3.61-4.46-3.98-5.8.15-.09.3-.19.48-.29.26-.15.53-.31.81-.46.12.66.36,1.57.81,2.53.66,1.41,1.59,2.5,2.77,3.25-.3.26-.6.52-.89.76ZM73.97,118.73c-2.53-1.49-3.26-4.39-3.47-5.61.05-.03.11-.05.16-.08.26-.13.52-.25.78-.37.04.61.16,1.42.53,2.28.56,1.28,1.5,2.3,2.81,3.04-.29.26-.56.51-.83.75ZM75.42,117.41c-2.77-1.43-3.17-3.86-3.18-5.08.1-.04.2-.08.3-.13l.04-.02s.02,0,.03-.01c.12-.06.23-.12.34-.18.08.51.26,1.13.66,1.78.61,1.01,1.6,1.87,2.93,2.57-.38.37-.75.72-1.12,1.07ZM77.13,115.76c-2.77-1.37-3.36-3.11-3.43-4.16.36-.19.68-.37.98-.53.16.54.41,1.21.83,1.88.59.94,1.36,1.66,2.29,2.15-.22.22-.44.44-.67.67ZM78.39,114.5c-1.98-.94-2.73-2.82-3-3.84.38-.22.76-.44,1.11-.65.39.99,1.24,2.37,3.06,3.28-.39.41-.79.82-1.18,1.22ZM80.14,112.68c-1.83-.83-2.62-2.19-2.95-3.09.46-.29.9-.57,1.3-.85.61.99,1.48,2.19,2.49,3.04-.28.31-.56.61-.84.91ZM82.23,110.41s0,.01-.01.02c0,0,0,0,0,.01,0,0-.01.01-.02.02-.22.24-.44.49-.67.74-.96-.79-1.79-1.95-2.37-2.91.37-.27.66-.49.88-.66.54.87,1.3,1.89,2.31,2.67-.04.04-.07.08-.11.12ZM80.63,107.09s.01-.02.02-.03c0,0,.06-.1.14-.28.99.41,3.08,1.37,4.59,2.6-.04.05-.08.09-.12.13-.15.15-.23.2-.25.22-.32.04-1.01.2-1.6.34-1.25-.74-2.18-1.97-2.78-2.98ZM160.88,168.79c.06-.18.11-.34.15-.5.01-.04.02-.09.03-.13.02-.03.04-.04.05-.05.04,0,.15.02.24.04.11.03.23.06.37.08-.06.09-.12.19-.18.32,0,0,0,0,0,.01-.34.81-.69,1.35-.96,1.7-.11,0-.25,0-.4.01.25-.43.53-.96.72-1.49ZM159.37,169.21s0-.02,0-.03c.12-.33.18-.58.2-.78,0-.01.01-.02.02-.03.07-.02.31.05.46.09.03,0,.06.02.09.03,0,.01,0,.02-.01.03-.24.68-.66,1.38-.94,1.82-.11,0-.22.02-.32.03.16-.35.35-.77.49-1.16ZM158.07,169.57s0-.02,0-.02c.11-.36.19-.65.23-.89.08-.03.24-.02.41-.01-.02.08-.06.18-.1.29,0,0,0,0,0,0,0,0,0,0,0,.01,0,0,0,0,0,0-.21.57-.52,1.22-.7,1.56-.07.02-.14.03-.21.05.12-.3.24-.65.36-1ZM157.2,168.97c.06-.06.11-.08.25-.07-.04.13-.08.27-.13.43,0,0,0,0,0,0,0,0,0,0,0,.01,0,0,0,0,0,.01-.19.6-.44,1.22-.57,1.53-.04.01-.08.03-.11.04.24-.72.49-1.52.57-1.96ZM95.53,121.65c-.18-.03-.36-.07-.53-.12-.83-.23-1.34-.57-1.5-1.02-.11-.31-.05-.64.04-.91,0,0,.02,0,.03.01.05.02,1.27.59,3.36.72,1.22.08,2.49,0,3.79-.24,1.3-.24,2.61-.64,3.92-1.2-.11.26-.22.54-.33.82-.04.02-.08.04-.12.05-.06.03-.12.05-.17.08-.06.03-.13.06-.19.08-.06.03-.12.05-.17.07-.06.03-.12.05-.18.08-.06.02-.11.05-.17.07-.06.03-.12.05-.18.07-.06.02-.11.05-.17.07-.06.02-.12.05-.17.07-.06.02-.11.04-.17.07-.06.02-.11.04-.17.07-.06.02-.11.04-.17.06-.05.02-.11.04-.16.06-.06.02-.11.04-.16.06-.05.02-.1.04-.16.06-.05.02-.11.04-.16.06-.05.02-.1.04-.15.05-.05.02-.11.04-.16.06-.05.02-.1.03-.14.05-.05.02-.11.04-.16.05-.05.02-.09.03-.14.04-.05.02-.11.03-.16.05-.04.01-.09.03-.13.04-.05.02-.11.03-.16.05-.04.01-.08.02-.13.04-.05.02-.11.03-.16.05-.04.01-.08.02-.12.03-.05.01-.11.03-.16.04-.04.01-.08.02-.12.03-.05.01-.11.03-.16.04-.04,0-.07.02-.11.03-.05.01-.11.03-.16.04-.03,0-.07.01-.1.02-.05.01-.11.02-.16.03-.03,0-.06.01-.1.02-.06.01-.11.02-.16.03-.03,0-.06.01-.09.02-.06,0-.11.02-.17.03-.03,0-.06,0-.08.01-.06,0-.11.02-.17.02-.03,0-.05,0-.08.01-.06,0-.11.01-.17.02-.02,0-.05,0-.07,0-.06,0-.11.01-.17.02-.02,0-.04,0-.07,0-.06,0-.12,0-.17.01-.02,0-.04,0-.06,0-.06,0-.12,0-.18,0-.02,0-.04,0-.05,0-.06,0-.12,0-.18,0-.02,0-.03,0-.05,0-.06,0-.12,0-.18,0-.01,0-.03,0-.04,0-.06,0-.12,0-.18,0-.01,0-.02,0-.03,0-.06,0-.12,0-.19,0,0,0-.02,0-.03,0-.06,0-.13,0-.19-.02,0,0-.02,0-.03,0-.06,0-.13-.01-.19-.02,0,0-.02,0-.03,0-.06,0-.12-.02-.18-.03-.02,0-.05,0-.07-.01-.05,0-.09-.02-.14-.02ZM95.71,122.48s.01,0,.02,0c.06,0,.13.02.19.02,0,0,.01,0,.02,0,.07,0,.14.01.21.02.02,0,.04,0,.07,0,.05,0,.1,0,.15.01.03,0,.05,0,.08,0,.05,0,.09,0,.14,0,.03,0,.05,0,.08,0,.05,0,.1,0,.16,0,.02,0,.04,0,.07,0h.02c.06,0,.13,0,.19,0,.02,0,.04,0,.05,0,.06,0,.12,0,.18,0,.02,0,.03,0,.05,0,.07,0,.14,0,.22-.01.02,0,.03,0,.05,0,.06,0,.12,0,.18-.01.02,0,.04,0,.06,0,.07,0,.15-.02.22-.02.02,0,.03,0,.05,0,.06,0,.13-.02.19-.02.02,0,.04,0,.06,0,.08-.01.15-.02.23-.03.01,0,.03,0,.04,0,.07-.01.14-.02.21-.04.02,0,.04,0,.06-.01.08-.01.16-.03.24-.05,0,0,.02,0,.02,0,.07-.02.15-.03.23-.05.02,0,.04,0,.06-.01.08-.02.17-.04.25-.06.07-.02.14-.03.21-.05.01,0,.02,0,.04,0,.07-.02.13-.03.2-.05.01,0,.03,0,.04-.01.07-.02.14-.04.21-.06,0,0,.02,0,.02,0,.07-.02.13-.04.2-.06.01,0,.02,0,.03,0,.07-.02.14-.04.21-.06.02,0,.03,0,.05-.01.07-.02.14-.04.21-.07.01,0,.02,0,.04-.01.07-.02.14-.05.21-.07,0,0,.01,0,.02,0,.07-.03.15-.05.23-.08.01,0,.03-.01.04-.02.07-.03.15-.05.22-.08.01,0,.03-.01.04-.02.08-.03.16-.06.24-.09,0,0,0,0,0,0,.08-.03.16-.06.24-.09.01,0,.03,0,.04-.01.08-.03.16-.06.24-.09.02,0,.03-.01.05-.02.08-.03.16-.07.25-.1,0,0,.02,0,.02,0,.08-.03.17-.07.25-.1,0,0,.02,0,.03-.01.09-.04.17-.07.26-.11.01,0,.03-.01.04-.02.09-.04.17-.07.26-.11,0,0,0,0,.01,0-.18.5-.34,1-.5,1.51-2.41.82-5.67,1.49-6.94,1.17,0,0,0,0,0,0-.02,0-.03,0-.05-.01-.07-.02-.14-.04-.2-.08-.44-.23-.6-.5-.52-.85ZM96.16,127.39c-.02-1.25.26-2.46.46-3.13.21.03.45.04.7.04,1.67,0,4.1-.58,5.82-1.12-.05.18-.1.35-.14.52-1.08.91-2.96,2.67-4.19,4.84-.48.84-.81,1.68-1.01,2.49-1.06-.74-1.61-1.96-1.64-3.65ZM105.07,138.29c-2.66-.09-4.68-.97-5.69-2.48-1.35-2.03-1.31-4.34.12-6.87.89-1.57,2.15-2.93,3.16-3.87-.11.49-.17.79-.18.86-.03.13-.25,1.1-.26,2.41-.02,1.83.39,3.44,1.17,4.66.92,1.43,2.35,2.34,4.24,2.72.57.11,1.13.17,1.68.17,1.12,0,2.19-.23,3.2-.7,1.15-.53,2.18-1.33,3.09-2.4.22.62.08,1.26-.4,1.91h0s0,0,0,0c-.57.77-1.57,1.5-2.9,2.12t0,0c-2.16,1.01-4.86,1.57-7.22,1.49ZM91.33,165.71c-1.16,1.17-2.56,1.85-3.63,1.76-2.29-.18-3.97-.14-4.75.66-.33.34-.47.78-.42,1.31,0,.07.03.13.07.18.38.56.42,1.37.09,2.01-.32.63-.93.99-1.72,1.01-.18,0-.37-.06-.56-.12-.52-.18-1.1-.11-1.73.22.82-.85,1.58-1.07,2.03-1.21.32-.1.6-.18.69-.48.08-.27-.08-.5-.16-.6-.87-1.53-1.24-2.77-1.09-3.7.13-.78.6-1.2.99-1.48.21-.15.84-.29,1.45-.43,1.38-.31,2.94-.66,3.34-1.67.19-.48.08-1.02-.33-1.6-2.32-3.4-3.35-6.19-3.25-8.8.13-3.26,2.06-6.34,5.89-9.4,5.49-4.38,11.1-3.61,15.6-2.99,2.35.33,4.38.61,6.02.12,1.63-.48,2.64-1.54,2.95-3.07,1.05-.51,1.91-1.1,2.54-1.72,0,0,0,0,0,.01,0,.02.01.04.02.06.01.04.02.07.03.11,0,.02.01.04.02.07,0,.03.02.07.03.1,0,.02.01.05.02.07,0,.03.02.07.02.1,0,.02.01.05.02.07,0,.04.02.07.02.11,0,.02,0,.05.01.07,0,.04.01.08.02.12,0,.02,0,.04.01.06,0,.05.02.11.03.16,0,0,0,.01,0,.02,0,.06.02.12.03.18,0,.02,0,.03,0,.05,0,.04.01.09.02.13,0,.02,0,.04,0,.07,0,.04,0,.08.01.12,0,.02,0,.05,0,.07,0,.04,0,.08,0,.11,0,.02,0,.05,0,.07,0,.04,0,.08,0,.11,0,.02,0,.05,0,.07,0,.04,0,.08,0,.12,0,.02,0,.04,0,.06,0,.05,0,.1,0,.15,0,.01,0,.02,0,.04,0,.06,0,.12,0,.18,0,.01,0,.03,0,.04,0,.05,0,.1,0,.14,0,.02,0,.04,0,.06,0,.04,0,.08,0,.12,0,.02,0,.05,0,.07,0,.04,0,.07-.01.11,0,.02,0,.05,0,.07,0,.04,0,.07-.01.11,0,.02,0,.05,0,.07,0,.04-.01.08-.02.11,0,.02,0,.04-.01.06,0,.04-.02.09-.03.13,0,.02,0,.03,0,.05-.01.06-.03.12-.04.17,0,0,0,.02,0,.02-.01.05-.03.1-.04.15,0,.02-.01.04-.02.06-.01.04-.02.07-.04.11,0,.02-.01.04-.02.06-.01.03-.02.07-.04.1,0,.02-.02.04-.02.06-.01.03-.03.07-.04.1,0,.02-.02.04-.03.06-.01.03-.03.07-.05.1,0,.02-.02.04-.03.06-.02.04-.04.07-.05.11,0,.02-.02.03-.03.05-.03.05-.06.1-.09.15-.64,1.06-1.76,1.7-3.32,1.9-.11-.01-.22-.02-.34-.04-3.75-.39-7.1-.23-9.96.5-.2.05-.39.1-.58.16-.62.18-1.21.38-1.78.61-2.94,1.2-5.15,3.13-6.56,5.75-.05.1-.11.2-.16.3-.04.07-.07.14-.11.21-.99,2.07-1.14,4.38-.44,6.43.05.14.1.28.16.42.03.07.06.15.09.22.01.03.02.05.03.08.02.05.04.1.07.14.01.03.03.06.04.09.02.04.04.09.06.13.02.03.03.06.05.09.02.04.04.08.06.12.02.03.03.06.05.1.02.04.04.08.06.12.02.03.04.06.06.1.02.04.04.08.07.11.02.03.04.06.06.1.02.04.05.07.07.11.02.03.04.06.06.09.02.04.05.07.07.11.02.03.04.06.06.09.02.04.05.07.07.1.02.03.04.06.07.09.03.03.05.07.08.1.02.03.05.06.07.09.03.03.05.07.08.1.02.03.05.06.07.09.03.03.06.07.08.1.02.03.05.06.07.09.03.03.06.07.09.1.03.03.05.06.08.08.03.03.06.07.09.1.03.03.05.05.08.08.03.03.07.07.1.1.02.02.05.05.07.07h.01c-.41,2.18-1.38,4.11-2.74,5.48ZM120.03,151.76c-4.92,1.88-10.15,2.41-11.15,2.5-.71.06-1.42.36-1.99.85-.59.49-.99,1.13-1.12,1.8-.13.61-.03,1.23.28,1.79.34.61.91,1.14,1.72,1.58,0,0,0,0,0,0,.72.37.87,1.2.86,1.83,0,1.65-.97,3.56-1.77,3.96-.67.34-.99.96-.87,1.68.17,1.07,1.22,2.05,2.39,2.23.59.13.95.33,1.06.57.16.36-.21.99-.53,1.54-.38.65-.74,1.27-.57,1.84-.09-.03-.17-.07-.23-.12-.42-.31-.49-1.04-.56-1.67-.03-.28-.06-.55-.11-.79,0,0,0,0,0-.01-.28-1.06-1.25-1.16-2.11-1.25-1.38-.14-2.81-.29-3.07-3.58,0-.27.09-.6.18-.96.18-.69.39-1.47-.04-2.09-.33-.46-.96-.73-1.93-.8-.23-.04-3.34-.62-5.7-2.84-.91-.86-1.61-1.86-2.07-2.98-.82-2.01-.69-4.34.36-6.4.04-.08.09-.17.13-.25,3.61-6.72,11.9-7.33,18.33-6.62.06,0,.11.01.17.02.03,0,.06,0,.09,0,1.84-.23,3.17-1,3.95-2.28.03-.06.07-.11.1-.17,0,0,0,0,0,0,.03-.06.06-.11.09-.17h0c.03-.07.05-.12.08-.18,0,0,0-.01,0-.02.02-.06.05-.11.07-.17,0,0,0-.01,0-.02.02-.06.04-.11.06-.17,0,0,0-.02,0-.02.02-.06.04-.11.06-.17,0,0,0-.02,0-.03.02-.06.03-.11.05-.17,0,0,0-.02,0-.03.02-.06.03-.11.04-.17v-.03c.02-.06.03-.12.04-.17,0,0,0-.02,0-.03.01-.06.02-.12.03-.18,0,0,0-.02,0-.03.01-.06.02-.12.03-.18,0,0,0-.02,0-.02,0-.06.02-.12.02-.18,0,0,0-.01,0-.02,0-.06.01-.13.02-.19,0,0,0-.01,0-.02,0-.06,0-.13.01-.19,0,0,0,0,0,0,0-.07,0-.13,0-.2h0c0-.07,0-.14,0-.2h0c0-.08,0-.14,0-.21,0,0,0-.01,0-.02,0-.06,0-.12,0-.19,0,0,0-.02,0-.02,0-.06,0-.12-.01-.18,0,0,0-.02,0-.03,0-.06-.01-.12-.02-.18,0-.01,0-.02,0-.03,0-.06-.01-.12-.02-.18,0-.01,0-.02,0-.03,0-.06-.01-.12-.02-.18,0-.01,0-.02,0-.03,0-.06-.02-.12-.03-.18,0,0,0-.02,0-.03,0-.06-.02-.12-.03-.17,0,0,0-.02,0-.03-.01-.06-.02-.12-.03-.17,0,0,0-.02,0-.03-.01-.06-.02-.12-.04-.17,0,0,0-.01,0-.02-.01-.06-.03-.12-.04-.18,0,0,0-.01,0-.02-.01-.06-.03-.12-.04-.18,0,0,0,0,0-.01-.02-.06-.03-.12-.05-.18,0,0,0,0,0,0-.02-.06-.03-.12-.05-.18,0,0,0,0,0,0-.02-.06-.04-.12-.05-.18,0,0,0,0,0,0-.02-.06-.04-.11-.05-.17,0,0,0,0,0,0,.32-.47.5-.96.53-1.44.04-.5-.07-1-.34-1.47,1.38-1.91,2.28-4.39,2.32-6.4,0-.01,0-.02,0-.03.67.18,1.34.43,1.98.74,1.56.76,2.95,1.86,4.13,3.29,0,0,0,0,0,0,.54.76,1.03,1.47,1.45,2.11.31.54.6,1.11.86,1.71-.46.95-1,2.24-1.11,3.33-.07.69.25,1.38.84,1.74.26.16.55.32.85.46.34.16.73.32,1.12.45.12.76.23,1.56.3,2.38.19,4.25-2.79,7.59-8.87,9.91ZM118.51,124.83c.09-1.24.32-2.05.54-2.57.29.43.61.87.96,1.32.17.21.33.42.49.62-.09.41-.16.82-.21,1.23-.58-.25-1.18-.45-1.78-.6ZM121.05,125.78c.02-.25.06-.5.1-.75.39.5.76.99,1.12,1.47-.39-.26-.8-.5-1.22-.71ZM135.57,145.89c-1.54-.6-2.44-1.07-2.83-3.8,0-.03-.01-.05-.02-.08-.29-.79-.75-1.47-1.38-2.05.04,0,.07,0,.11,0,.22,0,.39-.19.39-.41,0-.22-.19-.39-.41-.39-.45.01-.96-.04-1.52-.17-.02,0-.03,0-.05-.01-.19-.04-.38-.09-.57-.15-.26-.09-.37-.12-.57-.18-.32-.11-.63-.24-.9-.37,0,0,0,0,0,0-.27-.12-.53-.26-.76-.41-.33-.21-.51-.59-.47-.99.08-.79.42-1.72.78-2.52.32.66.82,1.08,1.47,1.23.03,0,.06.01.09.01.18,0,.34-.12.39-.31.05-.21-.08-.43-.3-.48-.59-.14-.98-.63-1.16-1.47.34-.65.62-1.1.62-1.11.12-.19.06-.43-.13-.55-.19-.12-.43-.06-.55.13,0,.01-.15.25-.36.62-.19-.31-.43-.67-.7-1.09,0,0,0-.01-.01-.02-.45-.79-.95-1.52-1.49-2.18,0-.01-.02-.02-.02-.03-1.1-1.56-2.43-3.34-3.95-5.29,0-.01-.02-.02-.02-.03-.19-.24-.39-.5-.59-.75-.49-.63-.92-1.24-1.27-1.82,0,0,0,0,0,0,0,0,0,0,0,0-1.97-3.19-2.12-5.8-1.91-7.43.24-1.75.94-2.78.96-2.8.13-.18.09-.43-.09-.55-.18-.13-.43-.09-.55.09-.03.05-.82,1.16-1.09,3.1-.16,1.13-.11,2.31.14,3.5.3,1.41.89,2.86,1.74,4.29-.36.63-.76,1.74-.86,3.64h0c0,.19-.02.36-.02.54-.03,1.57-.76,4.09-2.32,6.15h0c-.46.6-.95,1.13-1.48,1.57-.53.44-1.1.8-1.69,1.07-1.35.62-2.83.78-4.39.47-1.68-.33-2.93-1.13-3.73-2.36-1.69-2.63-.81-6.43-.8-6.47,0,0,0-.02,0-.03,0,0,.14-.8.47-2.04.11-.42.24-.87.38-1.34,0,0,0,0,0,0,.26-.86.55-1.71.87-2.53.12-.32.25-.62.37-.92.12-.3.25-.58.38-.87.02-.03.05-.06.06-.09,1.23-2.4,2.72-4.68,3.71-6.02,1.55-1.82,3.3-3.2,5.19-4.09h.01c3.95-2.08,6.98-.42,8.83,1.33.72.68,1.27,1.56,1.61,2.57.91,2.75,3.45,10.15,7.48,19.38.03.06.05.12.08.17-.25-.23-.39-.35-.4-.35-.17-.14-.42-.12-.56.05-.14.17-.12.42.04.56.04.03,3.96,3.4,8.52,9.74.1.17.39.55.73.91.56.58,1.12.96,1.65,1.13,1.02.41,1.08.72,1.18,1.17.06.27.13.59.36.93-.32.03-.69.02-1.02-.07-.02-.05-.04-.1-.07-.16-.05-.11-.1-.23-.16-.37-.37-.81-1.36-1.21-1.47-1.25-.2-.08-.43.02-.51.23-.08.2.02.43.23.51.22.09.84.4,1.03.84.06.13.1.24.15.35.05.12.1.23.14.33.03.06.06.14.11.22-.18.06-.39.1-.6.1-.1-.17-.19-.39-.32-.74-.32-.9-1.44-1.23-1.49-1.24-.21-.06-.43.06-.49.27-.06.21.06.43.27.49.22.06.81.32.97.75.13.36.24.64.38.88-.35,0-.62-.06-.8-.23-.03-.05-.06-.1-.08-.16,0-.01-.01-.02-.02-.03-.6-.98-1.69-.79-1.74-.78l.07.39.07.39s.6-.09.91.4c.04.08.08.15.12.22,0,0,0,0,0,.01.03.05.06.09.08.13-.29.05-.61.07-.87,0-.01-.02-.03-.05-.04-.08-.1-.2-.23-.46-.5-.62-.43-.25-1-.33-1.07-.34-.22-.03-.42.12-.45.34-.03.22.12.42.34.45.13.02.52.1.77.24.07.04.12.14.19.29,0,.02.02.04.03.05-.5.03-1.13-.02-1.8-.33,0,0,0,0-.01,0-.31-.13-.53-.29-.67-.48,0,0,0,0,0,0-.11-.15-.16-.31-.15-.48,0-.17-.1-.32-.25-.38ZM141.01,141.22s0,.01,0,.01c0,0,0,0,0,0,0,0,0,0,0,0ZM164.12,169.16c-.18.21-.43.29-.77.26-.31-.03-.6.05-.83.25-.51.42-.68,1.26-.74,1.9-.4,2.19-1.13,2.55-2.44,3.2-.14.07-.28.14-.43.21-1.67.85-2.89,1.93-2.98,2-1.28,1.09-1.84,2.13-2.24,2.89-.38.71-.61,1.13-1.16,1.32-1.32.39-2.44.27-3.35-.35-2.14-1.47-2.47-5.27-2.48-5.31,0-.04-.01-.07-.02-.11-.04-.11-3.95-10.62-8.55-18.47-2.3-3.91-2.52-7.08-2.21-9.21.12.08.26.15.41.21.59.27,1.23.4,1.88.4.37,0,.74-.04,1.1-.13.1-.02.18-.08.23-.16,0,0,.02,0,.03,0,.65,0,1.26-.21,1.35-.25.08-.03.15-.08.2-.15.08,0,.17.01.25.01.3,0,.61-.04.91-.09.16-.02.28-.14.32-.29,0-.03.01-.06.01-.09.56-.12.97-.38,1-.4.1-.06.16-.16.18-.27.04,0,.08,0,.13,0,.66,0,1.2-.16,1.23-.17.14-.04.25-.16.28-.3.03-.14-.02-.29-.13-.38-.47-.4-.54-.7-.62-1.06-.06-.27-.13-.59-.38-.9-.26-.32-.67-.59-1.29-.84-.01,0-.02,0-.03-.01-.94-.29-1.84-1.5-1.94-1.68,0,0,0,0,0,0,0,0,0,0,0,0,0,0,0,0,0,0,0-.02-.02-.03-.03-.05,0,0,0,0,0,0-2.87-3.99-5.49-6.82-7.08-8.4.06-.11.07-.24.02-.36-.05-.12-.1-.23-.15-.35,3.19,1.46,8.1,4.38,10.97,9.42,0,0,0,0,0,0,.89,1.47,1.39,5.41,1.96,9.97.92,7.3,2.07,16.38,5.49,20.95.02.03.05.06.09.09.49.35.94.48,1.37.48.67,0,1.3-.33,1.99-.69.16-.08.32-.17.49-.25.36-.18.71-.33,1.05-.46.36-.13.72-.23,1.09-.3.37-.07.76-.12,1.17-.14.09,0,.21-.01.36-.02.11,0,.23-.02.35-.02l.26.44c.1-.06,1.01-.63,1.85-2.64.06-.13.15-.28.24-.32.08-.03.22-.01.38,0,0,0,0,0,0,0h0s0,0,0,0c.36.04.86.09,1.52-.22-.02.32-.12.61-.29.81ZM87.93,86.83c-.13,0-.28,0-.44-.02-.08-.01-.17-.03-.27-.05-.08-.02-.17-.04-.25-.06.06,0,.13-.01.19-.02.25-.03.47-.07.7-.13,0-.01-.03-.26-.03-.46,0,0,0,0,0,0-.09,0-.19-.01-.28-.01-.25,0-.49.07-.73.16-.11.04-.23.08-.34.12.02-.02.04-.04.05-.06.05-.05.09-.1.14-.15l.02-.02h0s0-.01,0-.01c0,0,0,0,0,0h0s0-.02.02-.02h0s0,0,0,0c0,0,0,0,0,0h0s.04,0,.05,0c.07,0,.14,0,.21-.01.14,0,.26-.02.38-.03.16-.01.31-.03.44-.05,0-.18.02-.32.03-.4-.14-.02-.3-.03-.47-.05-.12-.01-.25-.02-.38-.03-.07,0-.14,0-.21-.01-.02,0-.04,0-.05,0-.03,0-.06,0-.09,0-.07,0-.14,0-.21,0-.04.04-.08.08-.12.13-.02.02-.04.04-.06.06v.02s-.02,0-.02,0l-.02.02s-.09.09-.14.13c-.1.09-.2.18-.3.27-.05.05-.1.09-.16.14-.04.04-.08.07-.12.11-.03.02-.06.05-.08.07-.03.02-.06.05-.09.07-.06.05-.12.09-.19.14l-.05.04-.06.04s-.08.05-.11.07h-.01s-.02.02-.02.02l-.05.02-.1.04-.1.04-.05.02s-.02,0-.04.01h-.04c-.24.1-.48.19-.73.27.15.06.31.12.47.18.11.04.22.08.32.12.04.01.07.03.11.04l.05.02s.04.01.06.02c.04.01.08.02.12.03h.07s.04.02.07.02c.05,0,.1,0,.15,0,.05,0,.11,0,.16,0h.04s.03,0,.04,0c.03,0,.06,0,.08,0,.03,0,.06,0,.08,0,.03,0,.06,0,.09-.01.06-.01.11-.02.17-.03.06-.01.12-.03.17-.04.03,0,.06-.02.09-.03.03,0,.06-.02.09-.03.03-.01.06-.02.08-.03l.05-.02s.07-.03.1-.05c.03-.02.07-.04.1-.06.02-.01.03-.02.05-.03l.02-.02s0,0,0,0t0,0s0,0,0,0c0,0,0,0,0,0,0,0,0,0,0,0,0,0,0,0,0,0,0,0,0,0,0,0,.01,0,.03,0,.05,0,.04,0,.09,0,.14,0,.1,0,.21.02.32.03.11,0,.22,0,.32,0,.2,0,.39-.04.54-.08.02,0,.04-.01.06-.02-.06-.12-.1-.25-.14-.38ZM87.44,83.99c-.37.33-.87.49-1.38.48.09.04.19.07.29.09,0,0,0,0,0,0-.06.02-.12.04-.2.05-.07,0-.15,0-.2-.02-.03-.01-.04-.02-.05-.04-.01-.01-.02-.03-.03-.06,0,0,0,0,0-.01,0,0,0,0,0,0,0,0,0,0,0,0h0s0-.02,0-.02c0-.04.01-.07.02-.1,0-.03.02-.05.05-.08.02-.03.06-.06.1-.09.09-.05.22-.1.34-.14-.06-.05-.14-.1-.22-.13-.08-.03-.17-.04-.26-.04-.09,0-.19.04-.28.1-.09.06-.16.15-.2.24-.02.05-.04.09-.05.14v.03s0,.02,0,.02h0s0,.02,0,.02c0,.03,0,.07,0,.1.03.14.07.21.14.29.03.04.07.07.11.1.04.03.09.05.13.07.09.03.18.03.25.02.15-.02.25-.09.33-.16.08-.07.12-.14.15-.2.01-.03.02-.06.03-.08.04,0,.07.01.11.02.36.05.73,0,1.08-.13-.14-.34-.19-.38-.26-.5Z"/>
          <path class="cls-1" d="M126.38,59.46c-.05-.17-.22-.29-.4-.28-.62.03-1.23-.12-1.82-.25-.29-.07-.58-.14-.88-.19,1.24-.46,2.03-1.03,2.08-1.06.15-.11.2-.31.13-.48-.07-.17-.26-.27-.44-.23-.64.12-1.3.13-1.94.13-.61,0-1.24,0-1.84.12,0,0-.01,0-.02,0-.14.03-.27.06-.41.1,1.36-.58,2.31-1.61,2.35-1.65.11-.12.13-.28.07-.43-.06-.14-.21-.24-.36-.24-.28,0-.79.12-1.59.31-.49.12-1.04.25-1.53.34-.02,0-.03,0-.05.01-1.69.56-3.24,1.57-4.61,3-.42.43-.78.87-1.1,1.29,0,0-.01.02-.02.03-.53.7-.92,1.35-1.2,1.85,0,0,0,0,0,.01,0,.02-.02.03-.03.05,0,0,0,0,0,0-.01.02-.02.04-.04.06,0,0,0,.01,0,.01,0,0,0,0,0,0,0,0,0,.01,0,.02-.07.11-.12.21-.16.31h0s0,.02,0,.02c0,0,0,0,0,0,0,0,0,0,0,0-.05.1-.08.17-.1.22,0,0,0,0,0,0,0,0,0,.02-.01.03,0,.01-.01.03-.02.04-.03.05-.05.1-.08.16-.11.21-.24.47-.38.77-.34.72-.56,1.36-.67,1.94h0s0,0,0,.01c-.08.41-.11.79-.09,1.14-.04.1-.14.3-.26.6-.11.03-.2.11-.25.22-.05.12-.04.25.02.35-.14.36-.3.8-.48,1.3-.09.04-.16.12-.19.21-.04.11-.03.22.01.32-.14.43-.29.89-.44,1.39-.07.05-.12.12-.15.2-.03.1-.02.19.01.28-.07.26-.15.53-.22.82-.05.04-.09.1-.11.16-.03.09-.03.19,0,.27-.08.31-.16.64-.23.97-.03.03-.06.07-.08.12-.04.09-.04.19,0,.28-.09.42-.18.86-.26,1.31-.02.02-.03.04-.04.07-.04.09-.05.18-.02.27-.08.47-.16.95-.22,1.44,0,0,0,0,0,0-.04.08-.05.17-.03.25-.07.54-.13,1.1-.18,1.66-.02.06-.03.13-.02.19-.04.45-.06.91-.08,1.37,0,.04,0,.08,0,.12-.02.5-.02,1-.02,1.51,0,0,0,0,0,.01,0,.12,0,.24,0,.36,0,.79.1,1.45.27,2.01-1.16.32-2.34.72-3.51,1.18.22.13.67.34.98.48.93-.34,1.86-.64,2.77-.9.02,0,.03,0,.04-.02.26.56.58.98.87,1.28.72.74,1.46.96,1.49.97.04.01.07.02.11.02.17,0,.33-.11.38-.29.06-.21-.06-.43-.27-.49,0,0-.6-.18-1.17-.79-.72-.75-1.11-1.8-1.16-3.13.68.36,1.59.74,2.69.96.63.13,1.26.19,1.9.19.99,0,1.99-.15,2.98-.46-.2,2.67-.59,4.09-.73,4.3-.23.35-.88.79-1.46,1.13-.05.02-.1.04-.14.08,0,0,0,0-.01.01-.29.17-.55.3-.72.39-.15.07-.23.23-.22.39l-.03.03.78.39c.22-.17.43-.35.65-.54.65-.37,1.48-.92,1.82-1.44.33-.51.73-2.56.9-5.24,0-.02,0-.03,0-.05.02-.26.03-.52.04-.79,0-.24.02-.49.02-.75,0-.02,0-.04,0-.06.01-.63.01-1.33,0-2.09,0-.03,0-.06,0-.09-.03-1.1-.09-2.32-.22-3.65,0-.02,0-.05,0-.07-.09-.99-.22-2.03-.38-3.13,0-.01,0-.02,0-.03-.16-1.07-.36-2.18-.61-3.34.36-.16.69-.34.99-.56,0,0,0,0,0,0,0,0,0,0,0,0,.89-.63,1.41-1.42,1.79-2.14.09-.06.15-.15.17-.26,0-.03,0-.05,0-.08.07-.15.14-.29.2-.42.08-.18.16-.36.24-.5.08-.16.15-.27.22-.34.04-.03.07-.06.11-.1.1-.04.18-.13.22-.23.12-.14.24-.28.35-.44.32-.44.56-.9.71-1.2.08-.04.15-.08.22-.12.01,0,.02,0,.03,0,.04,0,.09,0,.13-.02.09-.03.16-.09.2-.16.27-.13.49-.21.65-.22.06.03.13.05.2.05.01,0,.02,0,.03,0,.11.07.25.2.47.43.01.01.02.02.04.04.26.21.58.32.94.32.09,0,.18,0,.27-.02.5-.07.95-.34,1.19-.7.08-.13.09-.3,0-.43-.08-.13-.23-.2-.39-.18-.84.11-1-.28-1.21-.81-.04-.09-.08-.19-.13-.29.78-.08,1.72-.3,2.6-.84.15-.1.22-.28.17-.45ZM119.96,56.42c.49-.09,1.02-.22,1.49-.33-.39.26-.86.51-1.38.67-.2.06-.4.14-.61.25-.13-.08-.24-.16-.33-.26.27-.12.54-.23.83-.32ZM119.81,58.88c-.05-.12-.09-.26-.12-.4.23-.08.46-.15.69-.21.03.12.06.24.11.36-.25.08-.48.16-.69.26ZM119.83,60.19c-.37.22-.68.35-.99.4,0,0,0,0-.01,0,0,0-.01,0-.02,0,0,0,0,0,0,0-.02,0-.04.01-.07.02-.07.02-.29.03-.47.05-.31.02-.68.05-1.02.11-.1-.17-.19-.37-.25-.61.04-.03.08-.07.11-.12.21-.04.43-.05.72-.03.31.02.57.05.83.08.08.08.18.13.29.13.08,0,.16-.02.23-.07.16.01.31.02.46.02,0,0,0,0,0,0,.06,0,.13,0,.19,0ZM119.11,59.25s-.01,0-.02.01c-.2-.11-.4-.23-.6-.35.15-.06.3-.12.45-.17.04.19.1.36.17.51ZM118.41,57.11c.1.13.21.25.33.35-.35.26-.7.57-1.04.93-.2-.14-.4-.28-.6-.43.4-.31.84-.59,1.3-.85ZM116.47,58.48c.35.26.69.51,1.05.75-.31,0-.58.04-.84.11-.24-.14-.47-.27-.69-.41.15-.15.31-.3.48-.45ZM116.22,60.32c.06.25.15.49.25.69-.09.05-.17.1-.23.15h0s0,0,0,.01c-.03.03-.06.05-.08.08-.33-.13-.63-.32-.89-.56.13-.07.26-.12.4-.17.11-.04.22-.08.32-.11.09-.03.17-.06.24-.09ZM115.43,59.51c.08.05.17.11.25.16-.09.03-.19.07-.29.1-.1.03-.19.07-.29.11.1-.12.21-.25.33-.38ZM113.82,61.82c.17-.19.42-.45.75-.7.41.41.91.72,1.45.92,0,.02.02.04.03.05.18.27.29.63.31,1.06,0,.02,0,.04,0,.06-.86-.34-1.73-.78-2.6-1.32.02-.03.05-.05.07-.08ZM113.03,63.15c.04-.07.07-.13.1-.19,0,0,0,0,0,0,0,0,0,0,0,0,0,0,0-.02.01-.03,0,0,0,0,0,0,0,0,0,0,0,0,0,0,0,0,0-.01h0c.04-.08.08-.16.11-.23,0,0,0-.01,0-.02,0,0,0,0,0-.02.01-.02.03-.05.04-.07,1,.62,2,1.11,2.98,1.48-.01.08-.03.16-.04.25-.06.31-.14.57-.19.74-1.04-.41-2.1-.95-3.16-1.63.05-.09.09-.17.13-.25ZM111.97,66.36c.96.76,2.23,1.58,3.72,2.05-.06.03-.12.05-.19.08-1.14-.14-2.24-.45-3.15-.77-.01-.04-.03-.07-.05-.11-.23-.33-.33-.75-.32-1.25ZM111.4,68.2c.74.29,1.65.6,2.64.83-.04.07-.05.16-.04.25.04.19.2.32.39.32.02,0,.05,0,.07,0,.26-.05.51-.11.74-.18.01.05.02.1.03.15-1.45.24-2.87.14-4.24-.31.14-.4.28-.76.4-1.07ZM110.74,70.02c.97.32,1.97.48,2.98.48.55,0,1.11-.05,1.67-.14.04.22.08.43.12.65-2.05.65-3.85.47-5.12.12.12-.39.23-.76.35-1.1ZM110.17,71.88c.72.2,1.59.34,2.57.34.89,0,1.87-.12,2.91-.44.03.17.06.35.08.52-2.31.8-4.31.53-5.7.09.05-.18.09-.35.14-.52ZM109.84,73.17c.8.25,1.78.44,2.9.44.95,0,2-.14,3.12-.51.03.21.06.42.09.63-2.55.95-4.75.6-6.25.05.05-.21.1-.42.15-.62ZM116.37,82.33c0,.18-.02.36-.02.54-3.59,1.21-6.41-.03-7.63-.75,0-.22,0-.43,0-.65.69.36,1.61.75,2.74.97.62.12,1.24.18,1.86.18,1.02,0,2.04-.16,3.06-.48,0,.07,0,.13,0,.19ZM116.4,81.29c-3.59,1.23-6.42,0-7.66-.72.01-.23.02-.46.04-.68.72.32,1.69.64,2.86.77.37.04.73.06,1.1.06,1.23,0,2.46-.24,3.66-.71,0,.45,0,.87,0,1.27ZM116.38,79.17c-3.3,1.4-6.05.59-7.54-.12.03-.35.07-.7.11-1.05.93.39,2.23.76,3.78.76,1.09,0,2.31-.19,3.6-.69.02.38.03.74.04,1.09ZM116.29,77.25c-3.14,1.3-5.78.59-7.23-.06.04-.31.09-.62.14-.93.87.34,2.09.66,3.54.66,1.05,0,2.22-.17,3.47-.63.03.33.05.65.07.96ZM116.04,74.54c.04.31.07.62.1.93-2.92,1.15-5.4.56-6.8,0,.06-.31.12-.6.18-.89.88.31,1.97.55,3.22.55,1.01,0,2.12-.16,3.31-.58ZM116.63,67.84c-1.88-.41-3.47-1.5-4.54-2.4.1-.4.25-.84.46-1.32,1.15.74,2.32,1.32,3.46,1.75.62.23,1.24.41,1.85.54-.29.5-.68,1.01-1.23,1.43ZM118.65,64.82c-.08.16-.17.34-.26.53-.05.1-.1.21-.15.32-.47-.09-.95-.22-1.44-.37.06-.18.15-.49.22-.85,0-.05.02-.09.02-.14.57.17,1.12.3,1.67.38-.02.04-.05.08-.07.13ZM119.61,63.61c-.09.13-.19.25-.28.36-.7-.06-1.44-.22-2.19-.46,0-.13,0-.26,0-.38-.02-.38-.09-.73-.21-1.03,1.06.45,2.08.75,3.07.91-.11.19-.24.4-.39.61ZM120.37,62.26c-.87-.12-1.79-.36-2.73-.73.23-.03.48-.05.69-.06.28-.02.45-.03.57-.06.54.19,1.09.35,1.63.46-.03.08-.08.22-.16.39ZM121.48,61.73c0-.06,0-.12,0-.18,0-.04,0-.09,0-.13.14-.07.29-.14.44-.21,0,.12,0,.25.01.37-.14.03-.28.08-.44.14ZM122.04,60.32c-.27.09-.53.2-.76.31-.03-.01-.06-.02-.09-.03-.22-.04-.42.11-.46.32,0,0,0,0,0,0,0,0,0,0,0,0-.06.03-.1.08-.13.13-.16-.04-.33-.07-.49-.12.12-.07.24-.14.37-.23.29-.19.61-.43.96-.72.12-.1.17-.25.14-.39.16-.05.32-.09.46-.12-.05.25-.06.54,0,.83ZM121.28,58.45c-.07-.13-.11-.26-.13-.39.09-.02.18-.04.28-.07.53-.1,1.1-.1,1.7-.1.05,0,.1,0,.16,0-.56.23-1.24.44-2,.56ZM123.7,62.37c-.08-.02-.16-.05-.24-.11-.23-.24-.45-.48-.73-.61,0-.01,0-.03,0-.05-.02-.16-.03-.34-.02-.51,0,0,0-.01,0-.02,0-.04,0-.07,0-.11.04,0,.08,0,.11,0,.05.05.13.24.18.37.13.31.3.74.69,1.02ZM122.8,60c-.01-.19.02-.37.06-.52.36.04.74.13,1.13.22.16.04.31.07.47.11-.62.16-1.21.2-1.65.19Z"/>
          <path class="cls-1" d="M81.13,81.54s-.05.03-.07.04c-.18.1-.35.22-.53.34-.17.12-.34.25-.52.37-.18.12-.36.23-.55.34-.19.1-.4.2-.61.29.27.08.56.09.83.05.27-.04.53-.14.75-.25.22-.12.41-.26.58-.39.04-.03.08-.07.12-.1.04-.03.07-.06.11-.1.07-.06.14-.12.19-.17.23-.19.51-.3.71-.35.1-.03.19-.04.25-.05.03,0,.05,0,.07-.01.02,0,.03,0,.03,0,0,0,0,0-.03-.01-.02,0-.04-.02-.07-.03-.06-.03-.16-.06-.28-.08-.12-.02-.28-.04-.46-.02-.05,0-.09.01-.14.02-.05.01-.1.02-.15.04-.05.02-.1.03-.15.06-.02.01-.05.02-.07.04Z"/>
          <path class="cls-1" d="M76.57,80.24l-.06.05s-.08.06-.12.09c-.08.06-.17.12-.25.17l-.06.04-.03.02-.03.02-.13.07c-.09.04-.18.09-.27.12-.09.04-.19.06-.29.09-.1.02-.2.04-.3.04-.21.02-.42.01-.63,0,.23.11.47.19.73.23.26.04.52.03.77-.03.03,0,.06-.02.09-.02.03,0,.06-.01.09-.03.06-.02.12-.04.18-.06.12-.05.23-.1.34-.16.05-.03.11-.06.16-.09.05-.03.1-.06.15-.09.1-.07.2-.13.29-.2.05-.03.09-.07.14-.1.04-.03.09-.07.13-.1.09-.07.17-.14.25-.2.08-.07.16-.13.24-.2,0,0,.02-.02.03-.02l.03-.02s.03-.03.05-.04c.02-.01.03-.02.05-.04.02-.01.03-.02.05-.03.28-.18.61-.26.92-.31.16-.02.31-.03.46-.03.15,0,.29,0,.42,0,.27.01.5.04.69.07.19.03.34.05.45.07.05,0,.09.02.12.02.03,0,.04,0,.04,0,0,0-.01,0-.04-.02-.03-.02-.07-.04-.12-.07-.11-.06-.26-.13-.47-.22-.21-.08-.46-.17-.77-.24-.3-.07-.66-.12-1.05-.08-.2.02-.41.05-.61.13-.21.07-.42.18-.6.33-.32.26-.64.53-.96.79l-.06.05Z"/>
          <path class="cls-1" d="M70.7,87.73h0c-.07,0-.13.02-.18.05,0-.33.15-.72.22-.87.08-.16.02-.36-.15-.44-.16-.08-.36-.02-.44.15-.05.1-.46.96-.21,1.65.11.29.33.52.63.64.04.02.09.03.13.03.13,0,.25-.08.3-.2.04-.1.03-.21-.02-.3.35.09.91.36,1.12,1.17.04.15.17.25.32.25.03,0,.05,0,.08-.01.18-.05.28-.22.24-.4-.35-1.36-1.49-1.71-2.04-1.71Z"/>
          <path class="cls-1" d="M148.69,177.61c.24.11.49.16.75.16.49,0,1.02-.19,1.58-.57.18-.12.23-.37.11-.55s-.37-.23-.55-.11c-.62.42-1.14.53-1.56.35-.86-.39-1.23-2-1.3-2.59-.03-.22-.22-.37-.44-.35-.22.03-.37.22-.35.44.01.1.33,2.56,1.76,3.21Z"/>
          <line class="cls-1" x1="104.86" y1="86.86" x2="104.69" y2="86.78"/>
          <polygon class="cls-1" points="65.14 109.33 65.14 109.33 65.14 109.33 65.14 109.33"/>
          <path class="cls-1" d="M66.14,109.68l-.13-.05-.82-.29-.06-.02s.03,0,.06.02c.2.06.8.25.95.33Z"/>
          <path class="cls-1" d="M65.18,110.61l-.97-.16c.06,0,.72.1.94.15.01,0,.02,0,.03,0Z"/>
        </g>
        <g>
          <path class="cls-1" d="M158.91,65.81s-.03.01-.04.01h-.04s-.06.03-.09.04c-.06.01-.11.03-.17.03-.06.01-.11.01-.17.02-.06,0-.11,0-.17,0-.06,0-.11,0-.17,0-.06,0-.11,0-.17-.02-.11-.01-.23-.03-.34-.05-.23-.04-.46-.09-.71-.11-.12-.01-.25-.01-.38,0-.13.01-.26.04-.39.08-.25.09-.44.21-.62.33-.17.13-.33.26-.47.39-.28.27-.5.53-.68.77-.18.24-.33.45-.44.63-.11.18-.19.32-.25.42-.03.05-.05.09-.06.11-.01.03-.02.04-.02.04,0,0,.05-.05.14-.14.09-.09.22-.22.39-.38.17-.16.38-.35.62-.56.24-.21.51-.43.82-.65.15-.11.31-.21.48-.29.08-.04.17-.08.25-.1.02,0,.04-.01.06-.02.02,0,.04-.01.06-.01.02,0,.04,0,.06-.01.02,0,.04,0,.07,0,.18-.02.38,0,.6.03.22.03.45.06.7.08.12,0,.25,0,.38,0,.06,0,.13-.01.2-.02.07-.01.13-.02.2-.04.13-.03.26-.08.38-.13.06-.03.12-.06.18-.09l.09-.05.08-.06c.22-.15.4-.33.55-.53.15-.19.28-.4.39-.61-.2.19-.41.38-.63.53-.22.15-.44.27-.67.35Z"/>
          <path class="cls-1" d="M159.3,68.62c-.2.06-.4.1-.57.09-.02,0-.04,0-.07,0-.02,0-.04,0-.06-.01l-.07-.02h-.03s-.03-.02-.03-.02c-.04-.01-.09-.03-.14-.04-.05-.01-.09-.03-.14-.05-.19-.06-.39-.12-.59-.16-.05-.01-.1-.02-.15-.03-.05,0-.1-.01-.15-.02-.1,0-.21-.02-.31-.02-.21,0-.41.03-.6.09-.19.05-.36.13-.52.22-.15.09-.29.2-.41.31-.23.22-.4.46-.52.67-.12.22-.19.41-.24.58-.04.12-.06.22-.07.3-.02,0-.03-.01-.03-.01,0,0,.01.01.03.03,0,.02,0,.05-.01.07,0,.04,0,.08-.01.1,0,.02,0,.03,0,.03,0,0,0-.01.02-.03.01-.02.03-.06.06-.1,0,0,0-.01,0-.02.04.03.1.08.17.13.09.06.2.13.34.19.07.03.15.06.23.09.08.02.16.05.25.06,0,0,.02,0,.04,0h0c.13.02.28.04.44.03.15,0,.31-.03.47-.08.01,0,.03,0,.04-.01.22-.06.44-.17.64-.3,0,0,0,0,0,0,.15-.09.3-.2.43-.33.14-.13.25-.29.35-.45.14-.25.23-.53.26-.8.02,0,.04,0,.07,0,.05,0,.11,0,.17,0h.09s.06,0,.09-.02l.08-.02s.03,0,.04,0h.04c.11-.04.21-.09.3-.14l.13-.08.12-.09s.04-.03.06-.05l.06-.05s.07-.06.11-.1c.07-.07.14-.13.2-.2-.21.09-.41.18-.61.24ZM154.92,70.62c-.08-.03-.14-.05-.19-.07.05-.08.12-.18.2-.3.04-.05.08-.11.12-.16,0,.01,0,.02,0,.03,0,.23.09.45.23.61-.14-.03-.27-.07-.36-.1ZM158.14,69.36c-.09.16-.19.3-.3.43-.11.13-.23.24-.35.33-.12.09-.25.17-.38.24h0s-.01,0-.01,0c-.11.07-.22.13-.32.18.07-.13.11-.28.11-.43,0-.48-.36-.87-.82-.91.08-.04.17-.08.26-.11.13-.05.28-.09.43-.11.04,0,.07,0,.11-.01s.08,0,.11,0c.04,0,.08,0,.12,0,.04,0,.08,0,.12,0,.04,0,.08,0,.13,0,.04,0,.09,0,.13.01.04,0,.09.01.13.02h.07s.07.02.07.02c.17.02.35.06.55.09-.04.09-.09.17-.13.25Z"/>
          <path class="cls-1" d="M168.33,101.61c1.09-.79,2.41-1.23,3.48-2.05.55-.43.97-.97,1.06-1.7.03-.17.06-.39.09-.55l.08-.37c.04-.15.08-.31.12-.46.35-1.21.88-2.35,1.52-3.44-.8.71-1.42,1.61-1.89,2.57-.1.21-.2.44-.28.65-.06.16-.11.32-.17.48-.02.08-.12.42-.14.49-.02.07-.05.24-.06.3-.01.06-.04.23-.06.29-.14.71-.79,1.17-1.37,1.56-1.3.86-2.86,1.67-3.45,3.21.31-.38.66-.71,1.06-.99Z"/>
          <path class="cls-1" d="M198.91,177.06c0-.08-.01-.16-.01-.21-.04-.9-.57-2.14-1.92-2.67-.89-.35-3.06-.65-4.37-.8-.78-.83-1.76-2.01-2.78-4.18-1.21-2.59-4.3-7.9-7.51-12.9-1.63-2.54-3.12-4.74-4.32-6.36-1.89-2.56-2.55-3.03-2.88-3.17-.22-.09-.46-.16-.7-.22,0,0,0-.01,0-.02-.08-.2-.23-.66-.34-1.18,1.94-.97,3.57-2.22,4.86-3.72,1.08-1.26,1.93-2.7,2.51-4.28.99-2.69.87-4.82.87-4.91,0-.02,0-.03,0-.04,0-.04-.05-.44.26-.76.28-.29.93-.59,2.42-.42,1.71.2,3.29-.16,4.68-1.08,1.17-.77,2.24-1.93,3.27-3.55.85-1.34,1.21-1.37,1.71-1.41.54-.04,1.21-.1,2.31-1.21,1-.97,1.16-2.06,1.17-2.1.03-.19-.09-.38-.27-.43-.19-.06-.39.03-.47.2,0,0-.5.96-1.35,1.27-.21.08-.48.04-.82-.01-.93-.13-2.33-.33-4.39,1.6-1.53,1.44-3.28.96-4.43.35,2.03-.4,2.7-1.72,3.24-2.79.51-1.02.89-1.75,2.23-1.67.74.05,1.45-.31,2.03-1.04.46-.59.75-1.28.86-1.74.05-.19-.05-.38-.22-.46-.17-.08-.38-.02-.49.13-.13.19-.27.35-.42.47-.29.25-.7.36-1.12.29-1.31-.22-3.64-.39-4.58.95-.28.39-.57.75-.87,1.05-.36.36-.93.44-1.39.18-1.27-.71-3.89-1.82-7.15-1.22-1.15.21-2.58.9-4.27,2.07,0,0,0,0,0-.01-.55-.61-.87-1.02-.91-1.07,0,0,0,0,0,0-.03-.05-.37-.76,1.35-2.02.02-.02.04-.03.06-.05.61-.67.78-1.5.51-2.4-.17-.56-.5-1.08-.81-1.47.01-.01.02-.02.03-.03.5-.56.37-1.23.03-1.75.22-.16.46-.41.61-.76.19-.45.2-.96,0-1.52.1-.09.24-.22.41-.39.08.01.16.03.25.04.68.11,1.45.23,2.22.23,1.41,0,2.81-.42,3.65-2.1,1.23-2.28,2.09-4.82,2.56-7.56.34-1.97.47-4.01.38-6.05,1-4.31.62-7.81-1.12-10.38-.93-1.38-2.25-2.48-3.91-3.27-1.47-.7-2.95-1.02-3.93-1.17-.42-.06-.86-.09-1.33-.07-2.01-1.71-3.05-3.29-3.57-4.31-.59-1.17-.74-2.08-.69-2.55.36-.2.64-.53.79-.94.36-.96.54-2.01.57-2.2.04-.13.17-.59.18-1.12.07-.11.34-.63.56-1.77.43-1.89.3-3.59-.39-5.07-.41-.9-.94-1.53-1.36-1.95.04-.05.07-.11.1-.17.16-.35.08-.76-.19-1.03-1.27-1.24-2.57-2.51-6.72-2.13-2.97.27-5.71,1.68-7.48,2.81-1.85,1.18-3.53,2.68-3.92,3.47-.23.48-.28.9-.14,1.26-.52.84-1.56,2.77-1.63,4.78,0,.23.07.45.22.62.11.13.24.25.36.37.7.68,1.42,1.38-.65,5.15-.13.24-.15.52-.05.77.28.73.77,1.06,1.19,1.21,0,0,0,0,0,0,0,0,0,0,.01,0,0,0,.02,0,.03,0,.15.05.29.08.41.09.06,0,.1.04.11.1.12.63.32,1.08.58,1.34.17.17.37.3.57.38.04.01.06.06.07.11,0,.03,0,.06.01.09.03.21.14.4.3.53.21.18.53.36.57.38,0,0,.01,0,.02,0,.03.01.65.34.72,1.03,0,.34.2.67.56.96.72.59,2.12,1,2.77,1,.06,0,.11,0,.15,0,.51-.03,2.56-.55,4.72-1.69.07-.04.15-.08.22-.12.19.38.35.84.38,1.21-.01,0-.02,0-.03.02-.12-.06-.25-.12-.39-.18,0,0,0,0-.01,0-.81-.28-1.49-.28-2.04,0-.48.25-.7.64-.79.84-.18.04-.36.09-.54.13-.66.16-1.29.31-1.87.43-4.29.18-6.81,1.3-8.16,1.9-.41.18-.87.39-1.01.37-.18-.08-.38-.37-.54-.79-.03-.14-.06-.27-.09-.39-.03-.1-.07-.22-.12-.34,0,0,0,0,0,0,0-.02-.01-.04-.02-.06-.12-.32-.27-.67-.45-1.05,0,0,0,0,0,0,0,0,0,0,0-.01,0,0,0,0,0,0-.29-.62-.65-1.29-.93-1.81-.28-.51-.56-1.02-.84-1.52,0,0,0,0,0,0,0,0,0,0,0,0-.33-.58-.61-1.1-.87-1.58-.26-.47-.5-.92-.71-1.35-.34-.68-.64-1.31-.87-1.89-.08-.2-.14-.36-.19-.51,0,0,0,0,0-.01-.16-.39-.3-.77-.43-1.12h0s0,0,0,0c-.26-.72-.46-1.34-.61-1.89-.14-.54-.24-1.03-.28-1.46,0,0,0,0,0,0h0c-.03-.29-.05-.57-.04-.81.52-.16,1.06-.53,1.6-1.07h0c.13-.13.26-.27.38-.42,0,0,0,0,0,0,.44-.52.87-1.17,1.27-1.93.11-.21.22-.43.3-.6.1-.2.17-.36.25-.5,0,0,0-.02.01-.03,1.16-2.18,2.44-3.18,2.46-3.19.14-.11.19-.29.13-.46-.06-.16-.23-.27-.4-.25-.08,0-1.99.17-3.38,2.06,0,0,0,0,0,0,0,0,0,0,0,0-.08.11-.17.24-.26.39.1-.25.2-.49.28-.74.03-.09.07-.2.1-.32.14-.47.25-.92.3-1.34,0,0,0,0,0,0,.01-.12.03-.23.04-.34.07-.18.15-.35.24-.51.13-.24.29-.48.46-.69.14-.17.29-.33.44-.47.2-.18.41-.36.64-.51.28-.19.52-.33.7-.43.06-.03.11-.06.15-.08.29-.12,2.04-.91,2.54-3,.03-.15-.02-.3-.13-.4-.12-.1-.28-.12-.41-.06-.8.36-1.49.68-2.16,1-.16.08-.32.15-.48.23,0,0,0,0,0,0,0,0,0,0-.01,0,0,0-.02,0-.02.01-1.02.47-2.03.94-3.28,1.4,0,0,0,0,0,0,0,0,0,0,0,0-.08.03-.16.06-.24.09,0,0,0,0,0,0,0,0-.02,0-.03.01,0,0,0,0,0,0-.06.02-.12.04-.19.07-.16.06-.32.11-.48.17-.39.14-.82.28-1.31.43,0,0-.01,0-.02,0,0,0,0,0,0,0,0,0,0,0,0,0-.07.02-.13.04-.2.06-.05.02-.11.03-.16.05-.01,0-.02,0-.03,0-.14.04-.29.09-.48.14,0,0-.02,0-.03,0-.57.16-1.05.3-1.53.42-.02,0-.03,0-.05.02-.19.05-.39.1-.59.16l-.14.04c-.32.08-.61.23-.86.45,0,0,0,0,0,0,0,0-.02.01-.02.02,0,0,0,0,0,0-.25.22-.44.49-.57.81-.06.15-.12.31-.17.46-.14.4-.26.84-.36,1.3-.11.51-.2,1.05-.27,1.59-.03.3-.06.62-.09.95h0s0,0,0,.01c-.04.57-.05,1.12-.05,1.68,0,.52.02,1.04.06,1.57,0,.15.02.31.04.51.02.22.04.44.06.67.05.62.09,1.28.14,1.98h0s0,0,0,0c.02.22.03.45.05.69.02.26.04.53.06.8.05.66.1,1.36.16,2.09.09,1.05.16,1.86.25,2.62.07.67.15,1.36.25,2.06.12.88.26,1.73.4,2.51.24,1.29.53,2.48.85,3.56.28.92.59,1.77.93,2.51.34.74.71,1.41,1.09,1.99,0,0,0,0,0,0,0,0,0,0,0,0,.39.58.81,1.09,1.27,1.52,0,0,0,0,0,0,1.7,1.56,3.25,2.43,4.88,2.71.44.08.87.11,1.29.11.98,0,1.92-.17,2.9-.35.72-.13,1.47-.27,2.26-.34,2.52-.23,5.12-.51,7.75-.85-.75,1.99-1.09,3.78-1.32,5.06-.02-.04-.05-.07-.07-.11,0,0,0,0,0,0-.14-.21-.28-.43-.42-.63-.17-.25-.31-.45-.43-.61-.15-.21-.3-.39-.42-.51,0,0,0,0,0,0-.45-.47-.95-.66-1.59-.9-.41-.15-.87-.33-1.44-.62-.14-.07-.3-.05-.42.04-.12.09-.18.25-.14.4.08.34.16.61.32.86-.8-.16-1.83-.4-2.57-.7-.13-.05-.27-.03-.38.05-.11.08-.17.21-.16.35.01.18.07.37.16.55-1.26-.03-1.5-.16-1.51-.16-.15-.09-.34-.07-.47.04-.13.11-.17.3-.1.46h0c.22.51.89,1.67,2.47,1.67.15,0,.31.02.47.05-.02.02-.05.04-.07.06-.09.08-.17.15-.25.2,0,0,0,0,0,0-.53.4-1.42.88-2.67.93-.18,0-.34.14-.37.32-.03.18.06.36.23.44.66.29,1.54.54,2.37.54.35,0,.7-.04,1.01-.15.03-.01.06-.03.09-.04.22-.14.41-.27.57-.37,0,0,0,0,0,0,0,0,0,0,.01,0,.06-.03.16-.08.24,0,.09.09.17.19.25.28.21.24.38.5.53.78.06.1.14.31.2.43.1.27.14.54.18.83.07.5.15,1.07.6,1.54.16.16.35.3.58.43-.8-.02-1.68.11-2.8.38,0,0,0,0,0,0-.95.26-1.9.94-2.65,1.87-3.08-1.24-20.24-8.14-23.36-8.93-1.59-.4-6.94-3.1-12.67-6-.11-.06-.22-.11-.34-.17l-.2-.1-.78-.39-.23-.12c-2.29-1.16-4.65-2.35-6.89-3.45-.06-.03-.13-.06-.2-.1-.56-.28-1.42-.69-1.89-.92-.02,0-.03-.02-.05-.02-.03-.01-.06-.03-.09-.04-.03-.01-.05-.03-.08-.04-.02,0-.03-.01-.04-.02-.06-.03-.09-.04-.09-.04-2.69-1.29-5.05-2.35-6.69-2.94-3.1-2.49-5.21-4.08-7.78-4.95-.06-.1-.12-.19-.19-.27-.22-.29-.46-.61-.49-1.4,0-.01,0-.03,0-.04-.13-.95-.67-1.31-1.02-1.56-.17-.12-.28-.19-.3-.27-.04-.15-.17-.26-.33-.29-.16-.02-.31.05-.39.19-.04.07-.08.13-.11.2-.04-.02-.07-.04-.11-.06-.25-.14-.48-.27-.61-.42-.1-.12-.26-.17-.41-.13-.15.04-.27.18-.29.34t0,0c-.23-.11-.46-.23-.57-.32-.11-.09-.27-.11-.4-.05-.13.06-.23.18-.24.32,0,.03,0,.06,0,.09-.09-.05-.16-.1-.19-.14-.08-.11-.2-.17-.34-.17-.13,0-.26.08-.32.19-.04.07-.07.13-.09.2-.32-.1-.66-.11-1-.04-.28.06-.65.13-1.24-.38-.15-.13-.38-.13-.52,0-.31.28-.44.8-.35,1.41,0,.07.02.14.04.21,0,0,0,0,0,.01,0,0,0,0,0,0,0,0,0,0,0,0,0,0,0,.02,0,.02,0,0,0,0,0,.01,0,0,0,0,0,0,.08.29.49,1.33,2.21,1.49,0,.06,0,.12,0,.19,0,0,0,0,0,0,.02.54.08,1.14.2,1.7,0,0,0,.01,0,.02.05.23.12.47.21.71,0,0,0,0,0,0,.06.17.13.34.22.49.12.29,1.07,2.48,4.09,3.55.39.15.68.37.89.61,0,0,0,0,0,0,0,0,0,0,0,0,.04.05.21.25.36.63,0,0,0,0,0,0,0,.02.02.04.02.06.17.46.14.95.14.99h0s0,.05,0,.08c0,0,0,0,0,0-.01.08-.03.22-.03.4,0,0,0,0,0,0,0,.03,0,.06,0,.09,0,.2.03.44.09.69,0,.01,0,.03.01.04h0c.03.13.08.25.14.38,0,0,.01,0,.02,0,.07.13.14.28.24.42,0,0,0,0,0,0,.48.7,1.7,1.8,3.07,1.88.05,0,.1,0,.15,0,.09,0,.18,0,.27-.01.01,0,.02,0,.04,0,.38-.04.76-.15,1.11-.33.55-.28,1.01-.59,1.35-.83.16.25.42.47.8.64.18.08.61.31,1.21.65,0,0,0,0,.02.01.02,0,.04.02.07.04.14.08.29.17.45.26,0,0,0,0,0,0,.2.12.46.27.77.45,0,0,0,0,0,0,1.23.73,2.8,1.68,4.48,2.75.06.04.12.07.18.11.02.01.03.02.05.03,1.32.83,2.73,1.74,4.09,2.67,2.3,1.55,4.48,3.12,6.02,4.43.01,0,.02.02.03.03,3.72,2.52,6.38,3.92,8.4,4.4.52.12,1.01.19,1.46.19.15,0,.29,0,.43-.02l17.34,9.39c.26.14,4.95,2.79,8.01,3.66-1.14,1.24-2.27,2.65-3.37,4.2-1.38,1.84-2.32,4.6-2.56,7.56-.13,1.58-.07,3.16.2,4.69.09.52.2,1.02.34,1.52h0s.45,1.38.45,1.38c.33,1.02.84,1.98,1.5,2.82l2.2,2.83h0c1.03.97,2.21,1.8,3.54,2.49,3.03,1.57,6.8,2.36,11.22,2.36.36,0,.73,0,1.1-.02.19,0,.38-.01.57-.02.22.56.42,1.06.64,1.52,3.28,7.8,10.05,14.17,16.03,19.79,4.12,3.88,7.69,7.23,9.41,10.37-.28,1.05-1.82,6.92-1.88,9.48-1.28.57-1.51.8-1.59.88-.15.15-.25.32-.34.5-.2.35-.38.69-.99.89-.12.04-.22.14-.25.26-.04.12-.01.26.07.36.27.35,1.08.58,1.89.58.12,0,.25,0,.37-.02.27.11.59.16.93.16.31,0,.64-.04.97-.13.25.09.54.13.86.13.29,0,.59-.04.89-.11.24.07.5.11.79.11.26,0,.54-.03.82-.1.22.06.48.1.74.1.36,0,.75-.06,1.13-.18.39-.12.7-.4.87-.77.02-.05.09-.12.17-.21.02-.01.03-.02.05-.04l.13-.13s.07-.07.11-.1c.16-.14.34-.31.51-.48,1.09-1.03,1.73-2.29,1.76-3.52.02-.74-.19-1.4-.57-1.76-.18-.17-.78-1.28-.55-2.63.13-.74.6-1.42,1.29-1.86,1.58-1,1.43-3,1.37-3.86ZM146.39,61.68c-.3.37-.63.82-.97,1.36-.05-.12-.11-.24-.18-.36.37-.45.77-.77,1.15-1ZM191.34,125.07c1.78-1.67,2.86-1.51,3.73-1.39.34.05.66.1.99.03-.69.62-1.1.65-1.49.68-.76.06-1.33.22-2.32,1.77-2.07,3.25-4.35,4.6-7.19,4.27-1.47-.17-2.51.05-3.1.67-.53.56-.48,1.24-.46,1.4,0,.18.07,2.18-.83,4.61-1.2,3.23-3.47,5.72-6.75,7.42-.44-3.14-.73-9.05-.9-13.65,0,0,0,0,.01-.01.03-.02.05-.04.08-.07.03-.03.06-.06.1-.08.03-.02.05-.05.08-.07.03-.03.06-.06.09-.09.03-.02.05-.05.08-.07.03-.03.06-.06.09-.09.03-.02.05-.05.08-.07.03-.03.06-.06.09-.09.03-.02.05-.05.08-.07.03-.03.06-.06.09-.09.03-.03.05-.05.08-.08.03-.03.06-.06.09-.09.02-.03.05-.05.07-.08.03-.03.06-.06.09-.09.02-.03.05-.05.07-.08.03-.03.06-.06.09-.09.02-.03.05-.05.07-.08.03-.03.06-.06.09-.1.02-.03.05-.05.07-.08.03-.03.06-.07.09-.1.02-.03.05-.05.07-.08.03-.03.06-.07.09-.1.02-.03.04-.05.07-.08.03-.04.06-.07.09-.11.02-.03.04-.05.06-.08.03-.04.06-.08.09-.11.02-.03.04-.05.06-.08.03-.04.07-.09.1-.13.02-.02.03-.04.05-.07.05-.07.1-.13.15-.2.01-.01.02-.03.03-.05,1.13-2.11,2.6-3.44,4.34-3.95,2.41-.7,4.63.4,4.9.55.04.03.11.09.2.16.02.01.04.03.06.04.85.62,3.8,2.48,6.3.13ZM173.68,125.28c.36-.42.47-1.03.32-1.82,0-.01,0-.03,0-.04-.03-.08-.04-.15-.05-.21.01-.07,0-.13-.02-.19,0-.12.05-.19.13-.33.1-.17.23-.39.28-.74,1.75-1.25,3.2-1.99,4.31-2.19,3.02-.55,5.44.47,6.62,1.13.77.43,1.73.3,2.34-.31.33-.33.66-.72.96-1.15.74-1.04,3.09-.74,3.8-.62.32.05.64.04.94-.04-.36.48-.83.86-1.4.81,0,0,0,0,0,0-.84-.05-1.49.15-2,.61-.44.4-.71.93-.99,1.49-.55,1.09-1.07,2.12-2.88,2.4-.12.02-.24.04-.36.06-.1.02-.2.03-.29.05,0,0,0,0,0,0,0,0,0,0-.01-.01,0,0,0,0,0,0,0,0,0,0-.01-.01,0,0,0,0,0,0,0,0-.01,0-.02-.01,0,0,0,0,0,0,0,0,0,0-.01,0,0,0,0,0,0,0-.02-.02-.03-.02-.03-.02-.02-.02-.04-.03-.06-.04,0,0-.01,0-.03-.02-.31-.17-2.75-1.42-5.5-.62-.49.14-.96.34-1.4.59-1.34.75-2.48,2-3.41,3.73,0,0,0,0,0,.01-.04.05-.08.11-.12.16-.01.02-.03.04-.04.06-.03.04-.06.08-.09.12-.01.02-.03.04-.04.06-.03.04-.07.09-.1.13,0,.01-.02.02-.03.04-.04.05-.09.11-.13.16-.01.02-.03.03-.04.05-.03.04-.06.08-.1.11-.02.02-.03.04-.05.06-.03.04-.07.08-.1.12-.01.01-.02.03-.04.04-.05.05-.09.1-.14.15-.01.01-.02.02-.03.04-.04.04-.07.08-.11.12-.02.02-.03.03-.05.05-.03.04-.07.07-.1.11-.01.01-.03.03-.04.05-.05.05-.09.1-.14.14,0,0-.01.01-.02.02-.04.04-.08.08-.12.12-.02.02-.03.03-.05.05-.03.03-.07.07-.1.1-.02.02-.03.03-.05.05,0,0-.02.01-.02.02-.05-1.54-.1-3.26-.13-4.09.24-.06.57-.18.82-.49ZM159.23,127.16s-.09-.06-.13-.09c.04-.04.08-.09.13-.13,0,.07,0,.15,0,.22ZM159.29,128.67c0,.08,0,.16.01.24-2.13-.58-3.43-2.14-3.88-4.63l.59.46c.56.93.86,1.25.99,1.37.01.02.02.05.04.08.09.18.16.35.22.53.26.69.53,1.4,2.02,1.96ZM159.36,129.74c.06.68.13,1.4.23,2.17-.71-.33-1.39-.73-2.03-1.19-1.09-.92-1.79-2.24-2.06-3.83.71,1.27,1.9,2.39,3.87,2.85ZM159.41,125.68s0,0,0,0c-.72.62-1.13,1.11-1.2,1.2-.07-.14-.13-.29-.19-.46-.04-.12-.09-.23-.14-.36,1.35-1.44,3.92-3.67,7.11-3.87,3.07-.19,5.74.42,7.44.96.01,0,.02,0,.03.01.23.07.52.18.71.25.01.06.03.13.05.2.09.51.04.91-.14,1.13-.1.12-.23.18-.34.22-.2-.34-.6-.88-1.35-1.35-1.24-.79-2.94-1.11-5.04-.94-3.13.24-5.5,1.76-6.94,3ZM173.31,119.97s0,0,0,0c0,0,0,0,0,0,0,0,0,0,0,0ZM173.31,119.97s0,0,0,0c0,0,0,0,0,0,0,0,0,0,0,0ZM173.56,121.59s0,.08,0,.13h0c-.01.27-.09.4-.19.56-.06.09-.12.19-.16.32-.17-.06-.35-.12-.52-.18-1.77-.57-4.55-1.2-7.75-1.01-3.36.21-6.05,2.44-7.52,3.98-.08-.1-.21-.25-.37-.5.18-.25.86-1.12,2.04-2.01,1.28-.97,3.45-2.19,6.47-2.44,0,0,0,0,0,0,4.04-.43,6.55.37,7.98,1.16ZM174.16,117.34c-1.02.75-1.58,1.49-1.68,2.2-.05.34.03.59.1.75-1.6-.58-3.9-.98-7.09-.64-3.23.27-5.54,1.58-6.91,2.62-1.01.77-1.66,1.5-1.99,1.92h0s0,0,0,0c0,0-.02-.02-.03-.02,0,0,0,0,0,0l-1.02-.79c.5-3.04,2.15-6.17,4.45-8.48,1.45.6,2.88.94,4.27,1.02.34.02.7.03,1.07.03,1.47,0,3.12-.16,4.74-.45,1.52-.28,2.88-.66,3.69-1.03.69.85,1.22,1.97.42,2.89ZM159.21,113.66s-.09-.05-.14-.07c-.01,0-.02-.01-.03-.02-.05-.03-.11-.06-.16-.08-.01,0-.03-.01-.04-.02-.04-.02-.08-.04-.12-.07-.01,0-.03-.02-.04-.02-.05-.03-.09-.05-.14-.08,0,0,0,0-.01,0-.05-.03-.1-.05-.14-.08-.01,0-.03-.02-.04-.02-.03-.02-.07-.04-.1-.06-.01,0-.03-.02-.04-.02-.04-.03-.09-.05-.13-.08,0,0-.01,0-.02-.01-.03-.02-.05-.03-.08-.05,0,0,0,0,.01,0,.05-.03.09-.06.14-.1,0,0,.01-.01.02-.02.04-.03.08-.06.12-.09.01,0,.03-.02.04-.03.04-.03.08-.06.12-.09,0,0,0,0,.01-.01.04-.03.09-.07.13-.1.01,0,.02-.02.03-.03.03-.03.07-.06.1-.09,0,0,.02-.02.03-.03.04-.04.08-.07.12-.11,0,0,.02-.02.02-.02.03-.03.06-.06.09-.09.01-.01.02-.02.03-.03.04-.04.07-.08.11-.11.15.07.3.13.45.2,2.2.91,4.82,1.33,7.81,1.24.14,0,.28,0,.42-.01.02,0,.04,0,.06,0,.06,0,.12,0,.18,0,.03,0,.07,0,.1,0,.05,0,.09,0,.14,0,.04,0,.07,0,.11,0,.04,0,.09,0,.13,0,.04,0,.07,0,.11,0,.04,0,.09,0,.13,0,.04,0,.07,0,.11,0,.04,0,.08,0,.13-.01.04,0,.07,0,.11,0,.04,0,.08,0,.12-.01.04,0,.07,0,.11-.01.04,0,.08,0,.12-.01.04,0,.07,0,.11-.01.04,0,.08,0,.12-.01.04,0,.07,0,.11-.01.04,0,.08,0,.12-.01.03,0,.07,0,.1-.01.04,0,.08,0,.12-.01.03,0,.07,0,.1-.01.04,0,.08-.01.12-.02.03,0,.06,0,.1-.01.04,0,.08-.01.12-.02.03,0,.06,0,.09-.01.04,0,.08-.01.12-.02.03,0,.06,0,.08-.01.05,0,.1-.01.14-.02.02,0,.04,0,.06,0,.07-.01.13-.02.2-.03.02,0,.04,0,.06,0,.05,0,.09-.02.14-.02.03,0,.05,0,.08-.01.04,0,.08-.01.12-.02.03,0,.05,0,.08-.01.04,0,.07-.01.11-.02.03,0,.05,0,.08-.01.03,0,.07-.01.1-.02.03,0,.05-.01.08-.01.03,0,.06-.01.1-.02.03,0,.05-.01.08-.02.03,0,.06-.01.09-.02.03,0,.05-.01.08-.02.03,0,.06-.01.09-.02.03,0,.05-.01.08-.02.03,0,.06-.01.09-.02.02,0,.05-.01.07-.02.03,0,.06-.01.09-.02.02,0,.05,0,.07-.01.03,0,.06-.01.08-.02.02,0,.04,0,.07-.01.03,0,.06-.01.08-.02.02,0,.04,0,.06-.01.03,0,.05-.01.08-.02.02,0,.04,0,.06-.01.03,0,.06-.01.09-.02.02,0,.03,0,.05-.01.04-.01.08-.02.13-.03,0,0,0,0,0,0,.04,0,.08-.02.12-.03.17.23.37.6.11.89h0s-.06.06-.21.14c-1.2.67-4.94,1.53-8.33,1.53-.35,0-.69,0-1.03-.03-1.37-.08-2.8-.43-4.25-1.06-.06-.03-.13-.06-.19-.08-.02,0-.04-.02-.05-.02-.05-.02-.1-.04-.14-.07-.02,0-.03-.01-.05-.02-.06-.03-.12-.06-.18-.08-.01,0-.02,0-.03-.01-.05-.02-.1-.05-.15-.07-.02,0-.03-.02-.05-.02ZM180.93,107.37s0,0,0,.01c-.99,1.97-2.93,1.78-4.72,1.5,1.92-1.97,5.46-6.16,7.55-11.96-.17,3.07-.87,6.82-2.83,10.45ZM171.36,66.18s0,0,0,.01c-.04.2-.08.38-.12.54-.14-.22-.33-.39-.55-.52-.38-.3-.86-.41-1.38-.33-1.21.18-2.06,1.27-2.46,1.9-.02.04-.06.05-.08.05-.02,0-.06,0-.09-.02-.32-.26-.87-.79-.99-1.41-.04-.21,0-.62.03-1.04.07-.81.15-1.83-.14-2.71-.26-.79-.76-1.33-1.51-1.62.56-.35,1.03-.64,1.3-.73.92-.33,2.36-.76,4.22-.61.02,0,.04,0,.05,0,.85.83,2.57,2.75,1.73,6.49ZM152.9,62.63c.23-.48,1.54-1.81,3.63-3.15,1.7-1.09,4.31-2.43,7.12-2.69,3.78-.35,4.9.75,6.09,1.91.04.04.05.08.03.13-.1-.01-.2,0-.28.06-1.94-.13-3.43.31-4.4.66-.37.13-.9.46-1.63.92-2.03,1.27-5.21,3.25-8.53,3.25-.61,0-1.22-.07-1.83-.22,0,0,0,0-.02,0,0,0-.03,0-.06-.02.06-.16,0-.35-.14-.46-.03-.02-.06-.04-.1-.05.02-.1.06-.22.12-.34ZM153.84,77.77c.09-.13.19-.28.26-.4.06-.02.15-.04.23-.06.32-.08.83-.21,1.41-.51,0,0-.01.01-.02.02-.57.41-1.21.75-1.88.96ZM155.19,77.46c.33-.27.64-.57.93-.88.01,0,.02-.01.03-.02-.05.1-.11.2-.18.3-.4.62-.94,1.01-1.62,1.18.29-.17.57-.36.83-.58ZM163.43,79.7c-.07,0-.15.02-.21.06-.06.04-.1.08-.13.14-.13.07-.25.14-.37.2-2.09,1.1-4.11,1.6-4.39,1.6h0s-.05,0-.08,0c-.26.04-1.67-.29-2.33-.84-.16-.13-.25-.26-.25-.36,0-.01,0-.02,0-.03-.1-1.09-1.02-1.61-1.14-1.68-.03-.02-.08-.05-.14-.09,1.1-.23,1.77-.91,2.15-1.49.48-.74.61-1.47.61-1.5l.13-.78-.65.46s-.31.22-.45.33c-.8.63-1.55.82-2.01.94-.33.08-.55.14-.64.36-.03.07-.16.26-.29.45-.02-.02-.03-.03-.05-.05-.14-.14-.28-.49-.36-.93-.03-.14-.09-.27-.17-.37.3-.17.57-.4.76-.68.3.16.68.16,1,0,.48-.22.68-.83.46-1.31-.09-.21-.26-.36-.46-.45-.24-.11-.51-.05-.75.05-.37.16-.59.56-.58.94,0,.05.07.05.08,0,.05-.15.14-.29.25-.4.16-.15.36-.2.57-.18.06,0,.13,0,.17.05.02.02.06.05.07.08.12.17,0,.31-.13.43-.12.13-.23.23-.41.33-.02.01-.04.02-.06.03.08-.2.13-.42.16-.63-.14.34-.34.64-.62.87-.41.32-.95.46-1.46.42-.32-.12-.55-.36-.69-.74-.01-.03-.01-.08,0-.11,1.04-1.9,1.51-3.25,1.46-4.26-.04-.97-.55-1.45-.95-1.85-.11-.11-.22-.21-.3-.31-.02-.03-.03-.06-.03-.08.05-1.67.9-3.34,1.4-4.2.15.08.27.11.32.12.64.16,1.3.23,1.99.23,1.32,0,2.73-.29,4.23-.86,1.53-.58,2.89-1.37,4-2.04.91.12,1.45.53,1.7,1.28.24.73.16,1.65.1,2.4-.04.5-.08.94-.01,1.26.16.82.77,1.47,1.26,1.87.13.11.29.17.45.2.04.09.11.17.21.21.2.08.43,0,.52-.21,0-.02.93-2.14,2.5-1.87.15.03.28.07.39.13.3.26.46.67.52.86.06.5-.06,1.07-.14,1.3,0,.02-.01.04-.02.07,0,.01-.17,1.11-.53,2.07-.15.4-.49.64-.92.66-.34.01-.79-.14-1.01-.6-.01-.03-.02-.05-.03-.07-.09-.2-.33-.28-.53-.19-.2.09-.28.33-.19.53.01.03.02.05.04.08.31.66.95,1.06,1.67,1.06.03,0,.06,0,.08,0,.01,0,.03,0,.04,0,.01.73.29,1.69.78,2.67.69,1.38,1.79,2.78,3.2,4.07-.84.13-1.75.38-2.72.74-1.47.55-2.73,1.23-3.43,1.63-.15-.03-.31-.05-.48-.05-.65,0-1.35.03-2.12.12-.05-.51-.25-1.07-.48-1.52,1.75-1.07,3.61-2.7,4.15-4.95.05-.21-.08-.43-.29-.48-.21-.05-.43.08-.48.29-.49,2.06-2.28,3.56-3.94,4.55ZM161.59,82.43c.34-.17.81-.15,1.4.05,1.93.76,2.47,3.2,2.48,3.23.2.95.51,3.6-.41,4.83-.01.01-.02.03-.03.04-.02.03-.04.06-.07.08,0,0-.01.01-.01.02-.42.53-.84.8-1.25.81-.18,0-.35-.05-.48-.12.58-.47,1.41-1.53,1.38-3.72,0-.01,0-.02,0-.03-.2-2.08-1.19-3.38-1.98-4.1-.49-.44-.96-.72-1.29-.89.07-.07.15-.14.27-.2ZM144.5,63.77c.08-.11.15-.23.23-.35.08.19.13.39.15.59-.06.12-.13.26-.21.42-.08.16-.18.37-.28.57-.09.18-.19.35-.28.51-.04-.3-.13-.6-.27-.88.04-.04.08-.09.12-.13.17-.2.36-.45.56-.73ZM147.2,55.86c.16-.08.32-.15.49-.23.41-.19.84-.39,1.28-.6-.62,1.17-1.71,1.59-1.76,1.61-.02,0-.05.02-.07.03-.04.02-.09.05-.15.09-.14.08-.34.19-.57.34-.22-.1-.49-.22-.79-.31.75-.46,1.45-.87,1.57-.94ZM144.61,57.44c.37-.01.76.09,1.08.21-.07.06-.13.11-.19.17-.04.04-.09.08-.13.12-.28-.12-.64-.25-1.03-.32.08-.06.17-.12.27-.18ZM143.47,58.39c.45-.09.97.04,1.36.19-.07.1-.14.19-.2.3-.37-.14-.81-.26-1.25-.27.03-.07.06-.14.1-.21ZM141.65,58.43c.1-.05.28-.15.5-.27.18.01.35.05.49.11-.04.1-.07.19-.1.29-.25-.06-.56-.09-.92-.05,0-.03.02-.06.03-.08ZM141.57,59.33c.41-.08.71-.03.92.04.06.14.2.23.36.23h0c.15,0,.28-.09.35-.21.36-.02.74.08,1.05.18-.04.08-.07.17-.11.25,0,.02-.01.04-.02.06-1.02-.16-1.97-.25-2.83-.3.13-.04.23-.14.27-.26ZM140.66,58.41c.06,0,.12.01.18.02,0,.03,0,.06-.01.09-.1-.02-.21-.03-.32-.04l.16-.07ZM139.62,59.3c.46-.08.89-.03,1.19.04.04.11.12.2.23.24-.53-.03-1.03-.04-1.5-.03.05-.07.08-.15.07-.25ZM137.6,59.37c.46-.09.88-.08,1.23-.05,0,.02,0,.03,0,.04,0,.07.04.14.08.19-.59.02-1.1.05-1.52.1.06-.1.13-.2.21-.28ZM137.07,60.48c1.14-.14,3.65-.31,6.94.2-.03.16-.07.33-.12.5-3.11-.5-5.53-.41-6.95-.27.04-.15.08-.29.13-.44ZM136.75,61.74c1.16-.13,3.65-.3,6.91.21-.1.27-.2.53-.32.8-2.98-.47-5.34-.4-6.72-.27.04-.25.08-.5.13-.74ZM143.24,65.29c-.07-.01-.14-.02-.2-.03.05-.02.11-.05.16-.09.01.04.03.08.04.12ZM136.52,63.29c1.27-.13,3.54-.23,6.47.21-.04.07-.07.14-.11.21-2.7-.42-4.89-.39-6.37-.27,0-.05,0-.1.01-.15ZM136.45,64.24c1.38-.12,3.44-.16,6.01.21-.11.19-.19.29-.19.3-.07.1-.09.24-.04.36,0,.02.02.04.03.06-2.59-.31-4.61-.21-5.83-.08,0-.28.01-.56.03-.84ZM136.43,65.87c1.34-.15,3.75-.27,6.9.23-.02.24-.07.49-.17.74-.05.06-.1.11-.15.17-2.78-.47-5.04-.47-6.55-.36-.01-.26-.02-.52-.03-.77ZM136.52,67.54s0,0,0,0c0-.03,0-.06,0-.1,1.35-.09,3.32-.1,5.74.25-.39.27-.68.36-.85.38-.03,0-.06.01-.08.02-1.64-.22-3.24-.31-4.77-.26,0-.1-.02-.2-.02-.3ZM136.61,68.63c1.42-.04,2.91.03,4.43.23,0,.15,0,.31.01.47-1.97.42-3.41.52-4.36.52-.03-.42-.06-.83-.09-1.22ZM136.77,70.9c0-.09-.01-.17-.02-.26,0,0,.02,0,.03,0,.98,0,2.43-.11,4.37-.52.04.23.09.48.14.73-2.06.43-3.53.51-4.49.49-.01-.15-.02-.3-.03-.44ZM136.85,72.13c.09,0,.19,0,.28,0,1.01,0,2.45-.11,4.35-.52.11.37.23.76.38,1.18-2.26.52-3.88.63-4.92.62-.03-.44-.07-.87-.1-1.28ZM137.02,74.21s.08,0,.12,0c1.11,0,2.76-.14,5.01-.66.1.26.2.53.31.81.02.05.04.11.06.16-2.56,1.04-4.33,1.37-5.33,1.47-.06-.54-.11-1.11-.17-1.78ZM137.27,76.78c1.17-.12,2.99-.49,5.54-1.53.16.38.35.78.55,1.21-3.02,1.26-4.99,1.54-5.93,1.6-.06-.43-.11-.86-.16-1.27ZM137.81,80.53c-.1-.54-.19-1.1-.27-1.69,1.13-.07,3.16-.41,6.18-1.67.12.24.25.48.39.73-1.18.85-3.64,2.37-6.3,2.63ZM137.96,81.31c2.76-.29,5.27-1.81,6.53-2.71.16.3.34.61.52.94-1.19,1.27-3.43,3.3-6.42,4.4-.23-.82-.45-1.7-.63-2.64ZM138.82,84.71c3.02-1.1,5.31-3.1,6.6-4.44.16.28.31.56.46.84-1.01,1.61-3.09,4.21-6.42,5.33-.23-.53-.44-1.11-.64-1.73ZM139.79,87.17c3.27-1.12,5.38-3.57,6.52-5.26.17.33.36.68.52,1.03-.73,1.89-2.43,4.29-6.36,5.47-.24-.37-.46-.78-.68-1.23ZM152.51,91.96c-.83.07-1.59.21-2.33.35-2.76.5-4.94.9-8.39-2.27-.3-.28-.58-.6-.85-.95,1.83-.58,3.35-1.48,4.54-2.67.74-.74,1.33-1.58,1.78-2.5.02.05.04.1.06.15,0,0,0,0,0,0,0,0,0,0,0,0,0,0,0,.01,0,.02.03.14.09.41.2.71.33,2.01-1.68,3.88-1.7,3.9-.16.15-.17.4-.02.56.15.16.4.17.56.02.08-.07,1.58-1.47,1.93-3.3.09.06.18.12.27.15.09.04.19.05.29.05.33,0,.72-.18,1.33-.44,1.31-.58,3.75-1.66,7.91-1.83.02,0,.04,0,.06,0,.6-.13,1.25-.28,1.93-.44.25-.06.52-.12.78-.19.27.13.75.39,1.25.85.99.9,1.56,2.1,1.7,3.54.02,1.97-.71,2.8-1.13,3.12-.61.08-1.2.16-1.79.24-2.84.37-5.66.68-8.38.93ZM158.99,101.22s0,0,0,0c.02-.15.04-.31.06-.47.04-.34.09-.7.16-1.06.06-.29.12-.56.2-.82.02-.06.04-.13.06-.2l.02-.05s0-.02,0-.03c.03-.13.06-.28.1-.47.04-.23.09-.49.14-.76.24-1.34.59-3.35,1.48-5.56.35-.05.7-.09,1.06-.14.16.17.68.64,1.41.64h.02c.65,0,1.28-.38,1.86-1.1h0c3.41-.53,6.03-1.01,7.64-1.33.83-.16,1.67.15,2.15.8,0,0,0,0,0,0,.08.11.11.18.12.22.07.21.29.32.5.25.21-.07.32-.29.25-.5-.05-.14-.13-.29-.24-.44-.65-.89-1.81-1.33-2.94-1.1-1.5.3-3.88.74-6.96,1.22.75-1.87.18-4.61.15-4.75-.02-.09-.39-1.78-1.64-2.96.72-.08,1.37-.12,1.98-.11.16,0,.31.02.45.06.28.07.53.21.73.4.19.18.21.3.21.32-.04.2.08.4.28.45.04.01.07.01.11.01.17,0,.33-.11.38-.29.02-.09.12-.55-.43-1.07-.09-.09-.2-.17-.31-.25,1.61-.88,4.88-2.41,7.49-2.01,1.88.28,5.33,1.2,7.3,4.1,1.62,2.39,1.95,5.68,1,9.79,0,.01,0,.03,0,.04-.14.61-.32,1.26-.53,1.92-2.2,6.65-6.43,11.25-8.15,12.92-.34.34-.59.55-.68.63-.32.13-2.1.82-4.44,1.2,0,0,0,0-.01,0-2.63.34-5.23.22-7.04-.3.77-1.5.16-3.26-1.69-4.81,0,0,0,0,0,0,0,0,0,0,0,0-.38-.32-.81-.62-1.26-.89,0,0,0,0,0,0,0,0,0,0-.01,0h0c-.6-.36-1.24-.66-1.88-.88,0-.01.02-.02.03-.04,0,0,0,0,0,0,.6-.74.76-1.62.89-2.54ZM158.29,100.44c-.23.12-.46.22-.67.3.28-.18.52-.43.72-.69-.02.13-.04.26-.06.39ZM158.6,97.8s.02.03.03.05c.06.09.11.18.16.26-.02.1-.04.19-.06.27v.03s-.04.1-.06.15c-.04.05-.07.1-.11.15-.19-.22-.38-.42-.54-.61h-.01s-.06-.07-.08-.11c.26-.04.49-.12.67-.2ZM157.65,96.37c.06.09.13.19.2.3.1.15.21.31.31.46-.11.04-.24.08-.38.1,0-.05-.01-.09-.02-.14,0,0,0,0,0-.01-.03-.18-.08-.36-.16-.53-.02-.04-.04-.09-.06-.13.04-.02.07-.03.11-.05ZM157.43,98.63h.01c.16.19.34.39.52.6-.14.22-.36.52-.62.74,0-.1,0-.2-.02-.3-.01-.09-.03-.16-.05-.23-.05-.2-.11-.38-.19-.54.08-.14.15-.29.2-.43.05.05.1.11.15.16ZM155.79,94.93c.58.22.97.36,1.29.7.02.03.05.05.07.08-.05.02-.09.04-.14.06-.1-.08-.2-.15-.32-.21,0,0,0,0-.01,0-.32-.16-.61-.31-.84-.46-.22-.13-.38-.24-.51-.35.16.06.32.12.46.17ZM155.5,96.65c.13-.13.24-.29.33-.48.05.04.1.08.14.13l.54.54c-.2.01-.42.1-.69.2,0,0,0,0,0,0,0,0,0,0,0,0,0-.19-.14-.35-.32-.39ZM156.11,97.78c.14-.05.3-.12.39-.14.02.02.04.04.07.07,0,.01.02.02.03.03.01.01.03.02.04.04-.02.13-.06.28-.12.44-.05-.03-.1-.06-.16-.09-.07-.03-.14-.05-.22-.04-.23.03-.53.01-.83-.04.31-.09.57-.19.79-.28ZM154.93,95.78c.06.01.13.02.19.04-.08.18-.19.31-.33.39-.05-.03-.09-.05-.14-.07-.15-.07-.27-.1-.31-.11-.14-.04-.27-.08-.38-.11,0,0,0,0,0,0-.07-.02-.15-.05-.22-.08,0,0,0,0,0,0-.42-.15-.79-.34-1.08-.55.78.21,1.61.38,2.28.49ZM152.23,98.78c-.37.11-.8.12-1.23.06.49-.17.89-.39,1.21-.61.11.09.22.21.3.37-.09.06-.18.12-.28.18ZM151.83,96.32c-.56,0-.96-.2-1.24-.46.33.03.77.05,1.36.05.08,0,.16,0,.24.01.27.19.59.37.94.52-.03.05-.06.09-.1.13-.4-.17-.8-.25-1.2-.25ZM154.09,98.62s-.05-.05-.08-.08c-.2-.2-.43-.28-.64-.28-.05-.02-.11-.03-.16-.03-.09-.18-.21-.34-.35-.48.04-.02.08-.04.12-.05.12-.04.26-.05.38-.02.06.05.13.09.19.14,0,0,.02.01.02.02.04.03.07.06.11.09,0,.01,0,.02,0,.03-.01.33.3.51.51.61-.03.02-.06.04-.1.06ZM154.42,97.42s-.07,0-.1,0c-.08-.08-.17-.16-.27-.24-.01,0-.02-.02-.03-.03-.08-.06-.16-.12-.24-.18,0,0,0,0,0,0,0,0,0,0,0,0,0,0-.01-.01-.02-.02,0,0-.02,0-.02-.01.05-.08.1-.16.14-.24.09.03.18.05.28.08,0,0,0,0,.01,0,.01,0,.07.02.15.06,0,0,0,0,.01,0,.04.02.1.05.19.12,0,0,.02.01.03.02.11.08.21.18.29.29-.02.03-.04.06-.06.09-.12.02-.24.04-.35.05ZM154.89,99.7c-.09-.16-.19-.32-.29-.47.21-.13.38-.27.51-.41.27.05.63.09.99.07.01,0,.02.02.04.03-.41.33-.82.59-1.25.77ZM155.39,101.31c-.04-.27-.08-.57-.18-.88.44-.19.87-.45,1.29-.78.01.04.02.09.03.15,0,0,0,0,0,0,.03.17.01.33-.05.49-.03.07-.06.16-.08.25,0,0,0,0,0,0,0,0,0,0,0,0-.04.18-.05.34-.03.5-.3.19-.62.36-.94.5-.01-.08-.03-.17-.04-.26ZM155.78,102.4s-.05-.06-.07-.09c.35-.16.7-.34,1.03-.54.07.05.15.08.24.08.1,0,.2-.04.28-.12.03-.03.05-.05.06-.09.27-.05.55-.14.85-.27-.1.63-.23,1.22-.55,1.71-.92-.14-1.52-.36-1.83-.69ZM149.99,108.15s0,0,0-.01c.07-.54.36-1.19.8-1.79,0,0,0,0,0,0,.66-.92,1.53-1.58,2.39-1.81,2.33-.58,3.73-.59,6.36.83.01,0,.03.02.05.03.41.25.79.52,1.13.8.01.01.03.03.05.04.82.7,2.5,2.44,1.24,4.17-.07.1-.1.23-.06.35.04.12.13.22.25.26.03,0,.06.02.08.03,2.25.77,4.87.93,7.8.46.02,0,.04,0,.05,0,1.72-.22,3.24-.61,4.28-1.08.07.29.05.54-.04.76-.18.42-.61.59-.62.6,0,0-.02,0-.03.01,0,0-.02,0-.02,0-.02,0-.04.01-.06.02-.02,0-.04.01-.07.02-.02,0-.04.01-.07.02-.02,0-.05.01-.07.02-.02,0-.05.01-.07.02-.02,0-.05.01-.07.02-.02,0-.05.01-.07.02-.03,0-.05.01-.08.02-.02,0-.05.01-.07.02-.03,0-.05.01-.08.02-.03,0-.05.01-.08.02-.03,0-.05.01-.08.02-.03,0-.05.01-.08.02-.03,0-.06.01-.08.02-.03,0-.05.01-.08.02-.03,0-.06.01-.09.02-.03,0-.06.01-.08.02-.03,0-.06.01-.09.02-.03,0-.06.01-.09.02-.03,0-.06.01-.09.02-.03,0-.06.01-.09.02-.03,0-.06.01-.09.02-.03,0-.06.01-.09.02-.03,0-.06.01-.1.02-.03,0-.06.01-.09.02-.03,0-.06.01-.1.02-.03,0-.06.01-.1.02-.03,0-.07.01-.1.02-.03,0-.06.01-.1.02-.03,0-.07.01-.1.02-.03,0-.07.01-.1.02-.03,0-.07.01-.1.02-.03,0-.07.01-.1.02-.04,0-.07.01-.11.02-.03,0-.07.01-.1.02-.04,0-.07.01-.11.02-.03,0-.07,0-.1.01-.04,0-.07.01-.11.02-.04,0-.07,0-.11.01-.04,0-.07.01-.11.01-.04,0-.07,0-.11.01-.04,0-.08,0-.11.01-.04,0-.07,0-.11.01-.04,0-.08,0-.12.01-.04,0-.07,0-.11.01-.04,0-.08,0-.12.01-.04,0-.07,0-.11.01-.04,0-.08,0-.12.01-.04,0-.08,0-.11.01-.04,0-.08,0-.12.01-.04,0-.08,0-.12.01-.04,0-.08,0-.12,0-.04,0-.08,0-.12,0-.04,0-.08,0-.12,0-.04,0-.08,0-.12,0-.04,0-.08,0-.12,0-.04,0-.08,0-.12,0-.04,0-.08,0-.12,0-.04,0-.08,0-.12,0-.04,0-.08,0-.13,0-.04,0-.08,0-.12,0-.04,0-.08,0-.13,0-.04,0-.08,0-.12,0-.04,0-.09,0-.13,0-.04,0-.08,0-.12,0-.04,0-.09,0-.13,0-.04,0-.08,0-.12,0-.04,0-.09,0-.13,0-.04,0-.08,0-.12,0-.04,0-.09,0-.13,0-.04,0-.08,0-.12,0-.04,0-.09,0-.13,0-.04,0-.08,0-.12,0-.04,0-.09,0-.13,0-.04,0-.08,0-.13,0-.04,0-.09,0-.13,0-.04,0-.08,0-.12,0-.04,0-.09,0-.13,0-.04,0-.08,0-.13,0-.04,0-.09,0-.13,0-.04,0-.08,0-.13,0-.05,0-.09,0-.14,0-.04,0-.08,0-.13,0-.05,0-.09,0-.14-.01-.04,0-.08,0-.13-.01-.05,0-.09,0-.14-.01-.04,0-.08,0-.13-.01-.05,0-.09-.01-.14-.02-.04,0-.08,0-.13-.01-.05,0-.09-.01-.14-.02-.04,0-.08-.01-.13-.02-.05,0-.09-.01-.14-.02-.04,0-.08-.01-.12-.02-.05,0-.09-.01-.14-.02-.04,0-.08-.01-.12-.02-.05,0-.09-.02-.14-.02-.04,0-.08-.01-.12-.02-.05,0-.09-.02-.14-.03-.04,0-.08-.02-.12-.02-.05,0-.09-.02-.14-.03-.04,0-.08-.02-.12-.02-.05,0-.09-.02-.14-.03-.04,0-.08-.02-.12-.03-.05-.01-.09-.02-.14-.03-.04,0-.08-.02-.12-.03-.05-.01-.09-.02-.14-.03-.04-.01-.08-.02-.12-.03-.05-.01-.09-.03-.14-.04-.04-.01-.08-.02-.12-.03-.05-.01-.09-.03-.14-.04-.04-.01-.08-.02-.12-.03-.05-.01-.09-.03-.14-.04-.04-.01-.08-.02-.12-.04-.05-.01-.09-.03-.14-.05-.04-.01-.08-.02-.11-.04-.05-.02-.1-.03-.14-.05-.04-.01-.07-.03-.11-.04-.05-.02-.1-.04-.14-.05-.04-.01-.07-.03-.11-.04-.05-.02-.1-.04-.15-.06-.04-.01-.07-.03-.11-.04-.05-.02-.1-.04-.15-.06-.03-.01-.07-.03-.1-.04-.02-.01-.05-.02-.07-.03.31-.5.44-1,.38-1.45-.06-.44-.3-.84-.7-1.14-.93-.69-2.05-.67-3.25.06-.85.51-1.43,1.2-1.46,1.23-.14.17-.12.42.05.56.17.14.42.12.56-.05.02-.02,2.02-2.35,3.62-1.17.23.17.36.37.39.6.05.35-.13.8-.5,1.26,0,0,0,0,0,0t0,0c-.39.49-.97.97-1.64,1.33-.84.47-1.74.72-2.54.72-.16,0-.32,0-.49-.03-.96-.11-1.93-.52-2.66-1.13-.82-.68-1.73-1.94-1.38-4.02ZM152.9,113.88c-.52.33-1.05.72-1.59,1.15-.1-.72-.05-1.35.05-1.87.47.31,1,.55,1.55.72ZM87.48,75.77c.01.31.05.57.11.8-.06-.13-.11-.27-.13-.43,0,0,0,0,0,0h0s0-.02,0-.05c0-.02,0-.05-.01-.09,0-.06-.01-.12-.02-.16,0-.05-.02-.1-.01-.13,0-.03,0-.07,0-.1-.03-.12-.05-.23-.08-.33.07.13.13.29.16.5ZM86.47,75.27c.06.1.1.23.15.46,0,.09.02.17.03.24,0,.04.01.07.01.1,0,0,0,0,0,0,0,0,0,.01,0,.02,0,.01.01.09.01.12.02.26.1.48.19.67-.02,0-.03,0-.05,0-.19-.32-.4-.75-.45-1.18,0,0,0-.01,0-.02,0-.05-.01-.1-.01-.17h0c0-.18-.04-.34-.1-.5.09.08.16.17.22.27ZM85.26,74.93s0,0,0,0c.06.06.13.13.18.21.07.11.11.24.12.36,0,.1,0,.2.02.29.04.33.15.66.28.95-.09,0-.19-.02-.29-.03-.18-.3-.31-.57-.39-.82,0,0,0-.01,0-.02-.06-.21-.08-.38-.07-.54.02-.23-.02-.42-.08-.58.09.06.17.12.23.17ZM83.87,74.75c.07.03.14.06.19.09,0,0,0,0,0,0,.2.11.27.19.25.43-.02.25,0,.51.09.8,0,0,0,.02,0,.02,0,0,0,0,0,0,0,0,0,0,0,0,.05.17.12.36.21.54-.16,0-.32-.01-.48-.02-.11-.18-.16-.4-.15-.65,0,0,0-.01,0-.02,0-.02,0-.04,0-.05,0,0,0,0,0-.01.04-.43-.04-.82-.26-1.17.04.02.08.03.13.03ZM140.5,113.66s0,0,0,0l-16.59-8.98c.61-.27,1.12-.71,1.55-1.33.12-.18.08-.43-.1-.55-.18-.13-.43-.08-.55.1-.51.73-1.14,1.15-1.96,1.26-.03,0-.07,0-.1.01-.49.05-1.05,0-1.69-.15-1.91-.45-4.49-1.81-8.12-4.27-1.75-1.49-4.17-3.2-6.52-4.77h-.02s-.78-.53-.78-.53h-.02s-.03-.03-.04-.04l-.04-.02c-.98-.64-1.92-1.25-2.78-1.79-1.55-.98-3.02-1.88-4.24-2.61h0s-.96-.57-.96-.57l-.03-.02c-1.07-.62-1.82-1.04-2.08-1.16-.32-.14-.51-.35-.56-.62,0,0,0,0,0-.01,0,0,0-.01,0-.02-.03-.23.03-.42.04-.45l-.74-.28c-.06.17-.11.41-.1.66-.31.24-.81.6-1.45.93-.5.25-1.05.32-1.57.2-.02,0-.04-.01-.06-.01-.12-.03-.24-.07-.35-.13-1.18-.54-1.69-1.31-1.91-1.87-.08-.2-.11-.41-.08-.63.05-.43.06-1.08-.16-1.74-.02-.07-.05-.13-.08-.2-.18-.32-.22-.44-.37-.64-.32-.42-.76-.74-1.3-.95,0,0,0,0-.01,0-1.18-.42-2.15-1.06-2.88-1.92-.55-.64-.75-1.17-.75-1.18,0-.02-.01-.04-.02-.05-.42-.78-.53-1.97-.56-2.82,0-.02,0-.05,0-.07h0c.17-.07.29-.24.26-.43-.03-.22-.23-.37-.44-.34-.08.01-.16.02-.23.02,0,0-.01,0-.02,0-.67.04-1.24-.06-1.41-.18-.02-.01-.04-.03-.06-.04-.14-.07-.32-.37-.38-.79-.02-.16-.02-.29,0-.4.59.36,1.09.33,1.51.25.3-.06.6-.02.85.13,0,0,.02.01.03.02.05.06.11.11.19.13.02.01.04.03.05.04.29.26.42.58.39.95,0,.05-.01.1-.01.15-.01.29.03.55.12.8-.07.07-.11.17-.11.28,0,.22.18.4.4.4.11,0,.22,0,.33,0,0,0,0,0,0,0,.47,0,.93.03,1.36.06h0c.44.03.84.08,1.2.14,0,0,0,0,0,0,.39.06.75.13,1.1.21,0,0,.01,0,.02,0,.32.08.62.16.92.26,2.53.81,4.61,2.4,7.73,4.9.03.03.07.05.12.06,1.72.61,4.3,1.78,7.23,3.19l.07.04.96.46.04.02c2.41,1.17,5,2.48,7.51,3.75l.07.03h.01s.79.4.79.4h0s.07.04.07.04c.15.08.31.15.46.23,6.15,3.11,11.47,5.8,13.17,6.24,3.02.77,19.61,7.43,23.09,8.83-.36.58-.59,1.19-.66,1.72-.3,1.82.22,3.44,1.46,4.59-.18.73-.31,1.78-.06,2.99-.61.53-1.24,1.11-1.86,1.75-2.94-.7-8.19-3.67-8.25-3.7ZM162.71,147.05c-11.21.32-16.01-4.34-18.06-8.31-1.71-3.31-1.85-6.68-1.66-8.92.24-2.82,1.11-5.43,2.41-7.15,0,0,0,0,0,0,1.23-1.73,2.49-3.28,3.76-4.6.72-.75,1.44-1.42,2.14-2.01.96-.8,1.88-1.46,2.76-1.95,0,0,0,0,.01,0,.01,0,.02,0,.04,0,.03,0,.07,0,.1,0,.01,0,.03,0,.04,0,.03,0,.06,0,.09,0,.01,0,.03,0,.04,0,.04,0,.09,0,.13,0,.06,0,.11,0,.17,0,.02,0,.04,0,.06,0,.04,0,.08,0,.11,0,.02,0,.05,0,.07,0,.03,0,.07,0,.1-.01.02,0,.05,0,.07,0,.03,0,.07,0,.1-.01.03,0,.05,0,.08-.01.03,0,.07-.01.1-.02.03,0,.05,0,.08-.01.03,0,.07-.01.1-.02.03,0,.05-.01.08-.02.03,0,.06-.01.1-.02.03,0,.06-.01.08-.02.03,0,.06-.02.1-.03.03,0,.06-.02.08-.02.03,0,.06-.02.09-.03.03,0,.06-.02.08-.03.03-.01.06-.02.09-.03.03,0,.06-.02.08-.03.03-.01.06-.02.09-.03.03-.01.06-.02.08-.03.03-.01.07-.03.1-.04.03-.01.05-.02.08-.03.06-.02.12-.05.17-.07.03-.01.05-.02.08-.03.03-.02.07-.03.1-.05.03-.01.05-.03.08-.04.03-.01.05-.03.08-.04,0,0,0,0,0,0,.06.04.11.07.17.11,0,0,.01,0,.02.01.03.02.06.04.09.06,0,0,0,0,0,0,.03.02.06.04.1.06,0,0,.01,0,.02.01.03.02.06.04.09.05,0,0,0,0,.01,0,.03.02.07.04.1.06,0,0,.02,0,.02.01.03.02.06.03.09.05,0,0,.01,0,.02.01.04.02.07.04.11.06,0,0,.02.01.03.02.03.02.06.03.09.05,0,0,.02.01.03.02.04.02.07.04.11.06.01,0,.02.01.03.02.03.02.06.03.09.05.01,0,.02.01.03.02.04.02.08.04.12.06.01,0,.02.01.04.02.03.02.06.03.09.05.01,0,.03.01.04.02.04.02.08.04.12.06.01,0,.02.01.04.02.03.02.07.03.1.05.01,0,.03.01.04.02.04.02.08.04.13.06,0,0,0,0,0,0-1.14,1.18-2.1,2.53-2.87,4.02-.82,1.59-1.39,3.29-1.63,4.92-.04.25-.07.5-.09.74,0,0,0,0,0,.01-.27,3.04.6,5.57,2.44,7.11,0,0,.02.01.02.02.82.59,1.7,1.09,2.62,1.48.7,5.14,1.92,10.38,3.31,14.21-.1,0-.2,0-.3.01ZM189.3,190.5c-.1.1-.16.23-.24.4-.11.24-.26.57-.51.73-.29.1-.61.16-.89.17.13-.2.23-.4.3-.56.03-.06.06-.14.09-.18.15-.1.72-.35,1.27-.57,0,0,0,0,0,0ZM190.73,190.91c-.13.28-.3.65-.61.78-.03.01-.05.02-.07.04-.19.04-.39.07-.57.08.13-.2.23-.4.3-.56.03-.06.06-.14.09-.18.13-.09.57-.28,1.04-.48-.06.09-.11.2-.17.33ZM192.3,190.91c-.13.28-.3.66-.61.78-.04.02-.08.04-.11.07-.14.03-.29.04-.42.04.13-.2.23-.4.3-.56.03-.06.07-.14.09-.18.12-.08.48-.24.89-.41-.04.07-.08.16-.13.26ZM197.12,180.25c-.89.56-1.49,1.44-1.65,2.4-.27,1.57.38,2.95.78,3.34.16.15.34.55.33,1.16-.01.52-.22,1.87-1.77,3.19,0,0-.02.01-.02.02l-.34.34c-.24.22-.43.41-.53.62-.07.16-.21.28-.38.34-.27.09-.55.13-.82.14.14-.2.23-.4.3-.56.03-.06.06-.14.09-.18.18-.11.9-.43,1.5-.66.2-.08.3-.31.22-.51-.08-.2-.31-.3-.51-.22-.41.16-.76.31-1.03.43,0-.07,0-.14-.02-.21-.08-.2-.31-.3-.51-.22-.48.19-.86.35-1.15.49.03-.08.02-.17-.01-.26-.08-.2-.31-.3-.51-.22-.59.23-1.03.42-1.34.57.06-.1.08-.23.03-.35-.08-.2-.31-.3-.51-.22-1.02.4-1.62.69-1.77.84-.1.1-.16.23-.24.4-.11.24-.26.56-.5.72-.41.06-.81.03-1.13-.03.34-.27.51-.59.65-.84.08-.14.14-.25.21-.32,0,0,0,0,0,0,.1-.1.53-.35,1.45-.75.1,0,.18-.05.25-.11.25-.11.42-.18.42-.18.2-.08.3-.31.22-.52-.08-.2-.3-.3-.5-.23.19-2.85,1.86-9.02,1.88-9.08.03-.1.01-.2-.03-.29-1.75-3.29-5.4-6.73-9.64-10.72-5.92-5.57-12.63-11.88-15.84-19.53,0,0,0,0,0-.01-.24-.52-.48-1.1-.72-1.75h0c-1.46-3.86-2.77-9.39-3.48-14.77h0c-.15-1.13-.26-2.18-.33-3.13-.03-.33-.05-.66-.07-1.01,0,0,0,0,0,0,0-.11-.01-.21-.02-.31v-.02c-.03-.72-.03-1.34,0-1.85,1.36-1.14,3.53-2.49,6.36-2.71,1.9-.15,3.47.13,4.56.82.63.4.96.85,1.09,1.08.02.55.09,3.31.17,5.34.09,2.46.22,5.32.38,7.94.17,2.62.37,5.01.62,6.53t0,0h0c.07.42.18.85.28,1.19-1.66-.22-3.35.01-3.44.02-.22.03-.37.23-.34.45.03.22.23.37.45.34.03,0,2.88-.39,4.64.32.13.05.71.42,2.54,2.9,1.18,1.61,2.67,3.8,4.29,6.32,3.19,4.98,6.26,10.24,7.46,12.81,1.11,2.37,2.22,3.64,3.02,4.49,0,0,0,0,0,.01.08.08.16.16.23.24.88.92,1.25,1.31.95,2.49-.05.21.07.43.29.48.03,0,.07.01.1.01.18,0,.34-.12.38-.3.33-1.29,0-1.96-.62-2.68,1.56.21,2.73.44,3.23.63,1,.39,1.39,1.3,1.42,1.97,0,.07,0,.15.02.24.06.77.17,2.38-1,3.13Z"/>
          <path class="cls-1" d="M168.74,69.78s.03,0,.04,0c.02,0,.03,0,.05-.01l.18-.09c.06-.03.08-.09.06-.15-.06-.15-.09-.29-.11-.42,0,0,0,.01,0,.01,0,0,.56.89,0,1.74-.03.05-.02.12.03.16l.16.13s.05.02.07.02c0,0,.01,0,.02,0,.03,0,.06-.02.08-.05.71-1.08.03-2.2,0-2.24-.02-.03-.04-.05-.08-.05-.03,0-.06,0-.09.02l-.17.12s-.04.04-.04.06c-.06-.75.5-1.19.53-1.21.05-.04.06-.1.03-.15l-.11-.18s-.04-.05-.08-.05c-.03,0-.06,0-.09.02-.01,0-1.12.85-.56,2.25.01.03.04.05.07.06Z"/>
          <path class="cls-1" d="M93.38,86.76c.24,0,.5-.03.78-.08.22-.04.36-.25.32-.46-.04-.22-.25-.36-.46-.32-.49.09-1.15.13-1.46-.2-.3-.32-.23-.92-.18-1.13.05-.21-.07-.43-.28-.48-.21-.06-.43.07-.48.28-.01.05-.3,1.16.36,1.87.32.35.79.52,1.41.52Z"/>
        </g>
      </g>
      <path class="cls-1" d="M128.91,257.81C57.83,257.81,0,199.99,0,128.91S57.83,0,128.91,0s128.91,57.83,128.91,128.91-57.83,128.91-128.91,128.91ZM128.91,2C58.93,2,2,58.93,2,128.91s56.93,126.91,126.91,126.91,126.91-56.93,126.91-126.91S198.88,2,128.91,2ZM128.91,226.9c-54.03,0-97.99-43.96-97.99-98S74.87,30.91,128.91,30.91s98,43.96,98,98-43.96,98-98,98ZM128.91,32.91c-52.93,0-95.99,43.06-95.99,96s43.06,96,95.99,96,96-43.06,96-96-43.06-96-96-96Z"/>
      <g>
        <g>
          <path class="cls-1" d="M13.34,115.55c3.93.27,5.75,2.53,5.46,6.77l-.24,3.49,6.97.49-.36,5.31-18.55-1.29.63-9.23c.12-1.78.66-3.18,1.62-4.21.96-1.02,2.45-1.47,4.48-1.32ZM12.91,120.7c-.83-.04-1.47.13-1.92.51-.45.38-.7.94-.75,1.67l-.16,2.32,5.37.38.15-2.22c.06-.84-.1-1.47-.49-1.91-.38-.43-1.12-.68-2.21-.76Z"/>
          <path class="cls-1" d="M24.74,109.81l2.46,1.58-.9,3.75-16.6-10.59,1.12-4.7,19.57-1.84-1.32,5.52-2.9.26-1.44,6.02ZM22.78,104.13l-6,.55,5.09,3.27.91-3.82Z"/>
          <path class="cls-1" d="M18.31,86.78l-1.73,4.16-2.87-1.23,5.51-13.26,2.87,1.23-1.73,4.16,14.27,6.09-2.05,4.93-14.27-6.09Z"/>
          <path class="cls-1" d="M25.05,65.06c1.08-1.75,2.25-2.96,3.53-3.62,1.27-.67,2.66-.85,4.17-.54,1.51.31,3.2,1.05,5.07,2.24,1.92,1.22,3.35,2.47,4.29,3.77.94,1.29,1.39,2.67,1.34,4.12-.05,1.45-.59,3.02-1.62,4.7-.99,1.61-2.1,2.74-3.34,3.39-1.23.65-2.63.83-4.18.53-1.55-.3-3.3-1.06-5.25-2.29-2.77-1.77-4.49-3.68-5.16-5.7-.67-2.02-.28-4.22,1.15-6.58ZM31.74,72.99c1.19.71,2.18,1.24,2.94,1.59.77.35,1.54.51,2.32.49.78-.03,1.41-.42,1.89-1.19.51-.82.62-1.6.35-2.33-.27-.73-.75-1.39-1.44-1.96-.69-.58-1.58-1.22-2.7-1.92-1.1-.7-2.05-1.23-2.83-1.61-.79-.38-1.57-.55-2.35-.5-.78.04-1.42.46-1.93,1.27-.71,1.15-.68,2.21.09,3.16.77.96,1.98,1.96,3.64,3.01Z"/>
          <path class="cls-1" d="M48.66,52.78l-8.08-7.28,2.55-2.91,13.89,12.53-3.87,4.41-11.87-3.58,8.38,7.55-2.58,2.94-13.89-12.52,4.14-4.71,11.33,3.58Z"/>
          <path class="cls-1" d="M65.08,37.6l4.42,5.53s-.11.39-.44,1.03c-.33.64-.83,1.39-1.51,2.25-.68.86-1.51,1.69-2.5,2.5-2.26,1.85-4.38,2.5-6.35,1.93-1.97-.56-4.07-2.24-6.3-5.04-3.66-4.78-3.61-8.81.15-12.08.95-.78,1.83-1.42,2.63-1.93.8-.51,1.47-.88,2.01-1.13.54-.25.81-.36.83-.34l3.12,2.75s-.27.07-.81.2c-.53.13-1.14.35-1.82.66-.68.31-1.36.74-2.06,1.31-.17.14-.44.4-.82.77-.91.92-1.27,1.92-1.09,3.01.18,1.09.8,2.29,1.84,3.6.91,1.14,1.68,2.03,2.3,2.66.62.63,1.29,1.07,2,1.31.71.24,1.44.11,2.17-.37.61-.5,1.08-.97,1.42-1.41.33-.44.55-.76.66-.96l-2.96-3.71,3.11-2.54Z"/>
          <path class="cls-1" d="M79.78,17.3c1.56-.73,2.92-1,4.08-.79,1.16.2,2.09,1.04,2.81,2.52.73,1.61.79,2.88.18,3.8-.61.93-1.39,1.62-2.34,2.06,3.09-1.45,5.29-.79,6.61,1.99.96,2.1.95,3.72-.02,4.86-.97,1.14-2.4,2.15-4.29,3.04l-7.08,3.32-7.8-17.11,7.86-3.68ZM83.46,21.19c-.59-1.15-1.48-1.44-2.66-.88l-2.77,1.3,1.77,3.89,2.68-1.25c.67-.31,1.09-.7,1.27-1.15.18-.46.08-1.09-.28-1.89ZM86.02,31.67c.74-.35,1.25-.77,1.51-1.25.26-.49.19-1.18-.22-2.07-.71-1.57-1.87-1.97-3.48-1.22l-2.71,1.27,2.09,4.59,2.81-1.32Z"/>
          <path class="cls-1" d="M97.75,10.26c1.97-.53,3.64-.6,5.02-.2,1.38.39,2.51,1.23,3.41,2.5.89,1.27,1.62,2.98,2.19,5.14.58,2.22.78,4.13.59,5.72-.19,1.6-.79,2.91-1.8,3.93-1.01,1.03-2.47,1.79-4.35,2.3-1.81.49-3.38.54-4.72.17-1.34-.38-2.48-1.21-3.41-2.51-.93-1.29-1.69-3.06-2.28-5.31-.83-3.22-.8-5.79.08-7.73.88-1.94,2.64-3.28,5.28-4.01ZM97.28,20.68c.39,1.34.75,2.41,1.08,3.2.32.79.78,1.44,1.37,1.97.59.52,1.32.67,2.19.44.92-.25,1.53-.73,1.82-1.46.3-.72.39-1.53.28-2.43-.11-.9-.34-1.99-.67-3.27-.33-1.27-.66-2.32-.98-3.14-.32-.82-.78-1.49-1.37-1.99-.6-.51-1.35-.64-2.26-.41-1.29.35-1.98,1.14-2.07,2.37-.09,1.23.12,2.81.63,4.72Z"/>
          <path class="cls-1" d="M110.84,7.82l6.12-.53,2.96,4.66,2.17-5.1,4.19-.36-4.06,9.2,6.04,9.54-6.09.53-3.33-5.19-2.22,5.67-4.41.38,4.21-9.99-5.58-8.81Z"/>
          <path class="cls-1" d="M136.3,6.9l-.7,18.83-5.28-.2.7-18.83,5.28.2Z"/>
          <path class="cls-1" d="M150.43,19.75l1.76-10.81,3.79.63-3.03,18.59-5.74-.96-3.35-12.08-1.82,11.21-3.84-.64,3.03-18.59,6.14,1.03,3.06,11.62Z"/>
          <path class="cls-1" d="M171.85,25.82l-2.3,6.72c-.02.06-.38.11-1.09.17-.71.05-1.6.02-2.68-.11-1.08-.13-2.22-.4-3.42-.82-2.75-.96-4.41-2.44-4.98-4.44-.57-1.99-.27-4.69.89-8.08,2.06-5.68,5.46-7.76,10.2-6.26,1.16.41,2.16.82,3.01,1.24.85.42,1.52.8,2.01,1.13.49.33.73.51.72.54l-.65,4.14s-.2-.2-.6-.59c-.39-.39-.9-.79-1.51-1.22-.61-.42-1.35-.78-2.19-1.08-.2-.07-.56-.17-1.08-.3-1.25-.3-2.28-.08-3.1.65-.82.73-1.5,1.9-2.04,3.49-.47,1.39-.81,2.51-1.01,3.38-.2.87-.21,1.67-.04,2.41.18.74.66,1.3,1.46,1.67.74.26,1.39.42,1.93.47.55.05.93.07,1.15.06l1.54-4.51,3.77,1.32Z"/>
          <path class="cls-1" d="M190.61,30.12c-.21.38-.16.78.17,1.19.33.42.95,1.03,1.88,1.84.92.81,1.6,1.49,2.03,2.02,1.6,2.05,1.74,4.17.4,6.39-.92,1.42-1.92,2.38-2.99,2.88-1.07.5-2.15.65-3.24.44-1.09-.21-2.25-.67-3.47-1.4-.23-.13-.56-.33-.98-.61-.97-.65-1.79-1.3-2.47-1.94-.67-.65-1.19-1.2-1.54-1.67-.36-.47-.52-.72-.5-.76l1.94-4.38c.15.52.5,1.28,1.05,2.29.55,1.01,1.39,1.92,2.5,2.71,1.22.81,2.18,1.25,2.89,1.31.71.06,1.3-.26,1.75-.97.39-.66.45-1.26.18-1.81-.26-.55-.7-1.09-1.3-1.62-.6-.53-1.35-1.19-2.26-1.97-.94-.93-1.53-1.89-1.76-2.89-.23-.99.09-2.15.95-3.47.13-.2.38-.54.74-1.01,1.05-1.27,2.54-1.88,4.48-1.84,1.06.03,2.34.47,3.82,1.34.27.15.65.39,1.13.71,1.26.84,2.23,1.64,2.92,2.4.69.75,1.14,1.3,1.34,1.63l-1.26,3.71s-.19-.27-.56-.8c-.37-.53-.87-1.12-1.49-1.78-.62-.65-1.39-1.28-2.31-1.9-1.9-1.27-3.25-1.29-4.06-.06Z"/>
          <path class="cls-1" d="M206.55,39.49l-3.29-3.05,2.1-2.33,10.49,9.7-2.1,2.33-3.29-3.05-10.43,11.59-3.9-3.61,10.43-11.59Z"/>
          <path class="cls-1" d="M209.26,60.47l-2.74.99-2.37-3.02,18.45-6.76,2.97,3.79-10.6,16.77-3.49-4.45,1.58-2.48-3.8-4.85ZM214.89,62.4l3.26-5.14-5.68,2.06,2.41,3.08Z"/>
          <path class="cls-1" d="M236.29,72.33c.71,1.3.96,2.58.74,3.83-.22,1.25-.82,2.41-1.81,3.5-.99,1.09-2.29,2.08-3.9,2.98-1.79,1-3.41,1.61-4.88,1.84-1.47.23-2.75.06-3.85-.49-1.09-.55-1.99-1.47-2.68-2.75l-4.03-7.4,16.28-9.1,4.13,7.59ZM229.46,79.22c3.59-2.01,4.8-4.08,3.63-6.23l-1.11-2.04-10.83,6.05,1.04,1.92c1.21,2.23,3.64,2.33,7.27.3Z"/>
          <path class="cls-1" d="M243.09,87.4l-17.24,7.05-1.98-4.96,17.24-7.05,1.98,4.96Z"/>
          <path class="cls-1" d="M228.43,104.56c-.84-3.2-.68-5.45.48-6.74,1.16-1.29,2.51-2.14,4.05-2.56l11.95-3.23,1.36,5.17-11.76,3.18c-.68.18-1.24.41-1.68.67-.45.26-.77.65-.96,1.16-.2.51-.18,1.19.04,2.04.3,1.15.83,1.81,1.58,1.97.75.16,1.64.11,2.65-.17l11.64-3.15.99,3.76-11.8,3.19c-4.44,1.2-7.29-.57-8.53-5.3Z"/>
          <path class="cls-1" d="M242.99,125.58l-11.65-2.96,10.91-5.31-10.58.86-.31-3.88,18.54-1.51.5,6.36-7.19,3.21,7.62,2.2.46,5.77-18.54,1.51-.42-5.37,10.66-.87Z"/>
        </g>
        <g>
          <path class="cls-1" d="M13.34,115.55c3.93.27,5.75,2.53,5.46,6.77l-.24,3.49,6.97.49-.36,5.31-18.55-1.29.63-9.23c.12-1.78.66-3.18,1.62-4.21.96-1.02,2.45-1.47,4.48-1.32ZM12.91,120.7c-.83-.04-1.47.13-1.92.51-.45.38-.7.94-.75,1.67l-.16,2.32,5.37.38.15-2.22c.06-.84-.1-1.47-.49-1.91-.38-.43-1.12-.68-2.21-.76Z"/>
          <path class="cls-1" d="M24.74,109.81l2.46,1.58-.9,3.75-16.6-10.59,1.12-4.7,19.57-1.84-1.32,5.52-2.9.26-1.44,6.02ZM22.78,104.13l-6,.55,5.09,3.27.91-3.82Z"/>
          <path class="cls-1" d="M18.31,86.78l-1.73,4.16-2.87-1.23,5.51-13.26,2.87,1.23-1.73,4.16,14.27,6.09-2.05,4.93-14.27-6.09Z"/>
          <path class="cls-1" d="M25.05,65.06c1.08-1.75,2.25-2.96,3.53-3.62,1.27-.67,2.66-.85,4.17-.54,1.51.31,3.2,1.05,5.07,2.24,1.92,1.22,3.35,2.47,4.29,3.77.94,1.29,1.39,2.67,1.34,4.12-.05,1.45-.59,3.02-1.62,4.7-.99,1.61-2.1,2.74-3.34,3.39-1.23.65-2.63.83-4.18.53-1.55-.3-3.3-1.06-5.25-2.29-2.77-1.77-4.49-3.68-5.16-5.7-.67-2.02-.28-4.22,1.15-6.58ZM31.74,72.99c1.19.71,2.18,1.24,2.94,1.59.77.35,1.54.51,2.32.49.78-.03,1.41-.42,1.89-1.19.51-.82.62-1.6.35-2.33-.27-.73-.75-1.39-1.44-1.96-.69-.58-1.58-1.22-2.7-1.92-1.1-.7-2.05-1.23-2.83-1.61-.79-.38-1.57-.55-2.35-.5-.78.04-1.42.46-1.93,1.27-.71,1.15-.68,2.21.09,3.16.77.96,1.98,1.96,3.64,3.01Z"/>
          <path class="cls-1" d="M48.66,52.78l-8.08-7.28,2.55-2.91,13.89,12.53-3.87,4.41-11.87-3.58,8.38,7.55-2.58,2.94-13.89-12.52,4.14-4.71,11.33,3.58Z"/>
          <path class="cls-1" d="M65.08,37.6l4.42,5.53s-.11.39-.44,1.03c-.33.64-.83,1.39-1.51,2.25-.68.86-1.51,1.69-2.5,2.5-2.26,1.85-4.38,2.5-6.35,1.93-1.97-.56-4.07-2.24-6.3-5.04-3.66-4.78-3.61-8.81.15-12.08.95-.78,1.83-1.42,2.63-1.93.8-.51,1.47-.88,2.01-1.13.54-.25.81-.36.83-.34l3.12,2.75s-.27.07-.81.2c-.53.13-1.14.35-1.82.66-.68.31-1.36.74-2.06,1.31-.17.14-.44.4-.82.77-.91.92-1.27,1.92-1.09,3.01.18,1.09.8,2.29,1.84,3.6.91,1.14,1.68,2.03,2.3,2.66.62.63,1.29,1.07,2,1.31.71.24,1.44.11,2.17-.37.61-.5,1.08-.97,1.42-1.41.33-.44.55-.76.66-.96l-2.96-3.71,3.11-2.54Z"/>
          <path class="cls-1" d="M79.78,17.3c1.56-.73,2.92-1,4.08-.79,1.16.2,2.09,1.04,2.81,2.52.73,1.61.79,2.88.18,3.8-.61.93-1.39,1.62-2.34,2.06,3.09-1.45,5.29-.79,6.61,1.99.96,2.1.95,3.72-.02,4.86-.97,1.14-2.4,2.15-4.29,3.04l-7.08,3.32-7.8-17.11,7.86-3.68ZM83.46,21.19c-.59-1.15-1.48-1.44-2.66-.88l-2.77,1.3,1.77,3.89,2.68-1.25c.67-.31,1.09-.7,1.27-1.15.18-.46.08-1.09-.28-1.89ZM86.02,31.67c.74-.35,1.25-.77,1.51-1.25.26-.49.19-1.18-.22-2.07-.71-1.57-1.87-1.97-3.48-1.22l-2.71,1.27,2.09,4.59,2.81-1.32Z"/>
          <path class="cls-1" d="M97.75,10.26c1.97-.53,3.64-.6,5.02-.2,1.38.39,2.51,1.23,3.41,2.5.89,1.27,1.62,2.98,2.19,5.14.58,2.22.78,4.13.59,5.72-.19,1.6-.79,2.91-1.8,3.93-1.01,1.03-2.47,1.79-4.35,2.3-1.81.49-3.38.54-4.72.17-1.34-.38-2.48-1.21-3.41-2.51-.93-1.29-1.69-3.06-2.28-5.31-.83-3.22-.8-5.79.08-7.73.88-1.94,2.64-3.28,5.28-4.01ZM97.28,20.68c.39,1.34.75,2.41,1.08,3.2.32.79.78,1.44,1.37,1.97.59.52,1.32.67,2.19.44.92-.25,1.53-.73,1.82-1.46.3-.72.39-1.53.28-2.43-.11-.9-.34-1.99-.67-3.27-.33-1.27-.66-2.32-.98-3.14-.32-.82-.78-1.49-1.37-1.99-.6-.51-1.35-.64-2.26-.41-1.29.35-1.98,1.14-2.07,2.37-.09,1.23.12,2.81.63,4.72Z"/>
          <path class="cls-1" d="M110.84,7.82l6.12-.53,2.96,4.66,2.17-5.1,4.19-.36-4.06,9.2,6.04,9.54-6.09.53-3.33-5.19-2.22,5.67-4.41.38,4.21-9.99-5.58-8.81Z"/>
          <path class="cls-1" d="M136.3,6.9l-.7,18.83-5.28-.2.7-18.83,5.28.2Z"/>
          <path class="cls-1" d="M150.43,19.75l1.76-10.81,3.79.63-3.03,18.59-5.74-.96-3.35-12.08-1.82,11.21-3.84-.64,3.03-18.59,6.14,1.03,3.06,11.62Z"/>
          <path class="cls-1" d="M171.85,25.82l-2.3,6.72c-.02.06-.38.11-1.09.17-.71.05-1.6.02-2.68-.11-1.08-.13-2.22-.4-3.42-.82-2.75-.96-4.41-2.44-4.98-4.44-.57-1.99-.27-4.69.89-8.08,2.06-5.68,5.46-7.76,10.2-6.26,1.16.41,2.16.82,3.01,1.24.85.42,1.52.8,2.01,1.13.49.33.73.51.72.54l-.65,4.14s-.2-.2-.6-.59c-.39-.39-.9-.79-1.51-1.22-.61-.42-1.35-.78-2.19-1.08-.2-.07-.56-.17-1.08-.3-1.25-.3-2.28-.08-3.1.65-.82.73-1.5,1.9-2.04,3.49-.47,1.39-.81,2.51-1.01,3.38-.2.87-.21,1.67-.04,2.41.18.74.66,1.3,1.46,1.67.74.26,1.39.42,1.93.47.55.05.93.07,1.15.06l1.54-4.51,3.77,1.32Z"/>
          <path class="cls-1" d="M190.61,30.12c-.21.38-.16.78.17,1.19.33.42.95,1.03,1.88,1.84.92.81,1.6,1.49,2.03,2.02,1.6,2.05,1.74,4.17.4,6.39-.92,1.42-1.92,2.38-2.99,2.88-1.07.5-2.15.65-3.24.44-1.09-.21-2.25-.67-3.47-1.4-.23-.13-.56-.33-.98-.61-.97-.65-1.79-1.3-2.47-1.94-.67-.65-1.19-1.2-1.54-1.67-.36-.47-.52-.72-.5-.76l1.94-4.38c.15.52.5,1.28,1.05,2.29.55,1.01,1.39,1.92,2.5,2.71,1.22.81,2.18,1.25,2.89,1.31.71.06,1.3-.26,1.75-.97.39-.66.45-1.26.18-1.81-.26-.55-.7-1.09-1.3-1.62-.6-.53-1.35-1.19-2.26-1.97-.94-.93-1.53-1.89-1.76-2.89-.23-.99.09-2.15.95-3.47.13-.2.38-.54.74-1.01,1.05-1.27,2.54-1.88,4.48-1.84,1.06.03,2.34.47,3.82,1.34.27.15.65.39,1.13.71,1.26.84,2.23,1.64,2.92,2.4.69.75,1.14,1.3,1.34,1.63l-1.26,3.71s-.19-.27-.56-.8c-.37-.53-.87-1.12-1.49-1.78-.62-.65-1.39-1.28-2.31-1.9-1.9-1.27-3.25-1.29-4.06-.06Z"/>
          <path class="cls-1" d="M206.55,39.49l-3.29-3.05,2.1-2.33,10.49,9.7-2.1,2.33-3.29-3.05-10.43,11.59-3.9-3.61,10.43-11.59Z"/>
          <path class="cls-1" d="M209.26,60.47l-2.74.99-2.37-3.02,18.45-6.76,2.97,3.79-10.6,16.77-3.49-4.45,1.58-2.48-3.8-4.85ZM214.89,62.4l3.26-5.14-5.68,2.06,2.41,3.08Z"/>
          <path class="cls-1" d="M236.29,72.33c.71,1.3.96,2.58.74,3.83-.22,1.25-.82,2.41-1.81,3.5-.99,1.09-2.29,2.08-3.9,2.98-1.79,1-3.41,1.61-4.88,1.84-1.47.23-2.75.06-3.85-.49-1.09-.55-1.99-1.47-2.68-2.75l-4.03-7.4,16.28-9.1,4.13,7.59ZM229.46,79.22c3.59-2.01,4.8-4.08,3.63-6.23l-1.11-2.04-10.83,6.05,1.04,1.92c1.21,2.23,3.64,2.33,7.27.3Z"/>
          <path class="cls-1" d="M243.09,87.4l-17.24,7.05-1.98-4.96,17.24-7.05,1.98,4.96Z"/>
          <path class="cls-1" d="M228.43,104.56c-.84-3.2-.68-5.45.48-6.74,1.16-1.29,2.51-2.14,4.05-2.56l11.95-3.23,1.36,5.17-11.76,3.18c-.68.18-1.24.41-1.68.67-.45.26-.77.65-.96,1.16-.2.51-.18,1.19.04,2.04.3,1.15.83,1.81,1.58,1.97.75.16,1.64.11,2.65-.17l11.64-3.15.99,3.76-11.8,3.19c-4.44,1.2-7.29-.57-8.53-5.3Z"/>
          <path class="cls-1" d="M242.99,125.58l-11.65-2.96,10.91-5.31-10.58.86-.31-3.88,18.54-1.51.5,6.36-7.19,3.21,7.62,2.2.46,5.77-18.54,1.51-.42-5.37,10.66-.87Z"/>
        </g>
      </g>
      <g>
        <g>
          <path class="cls-1" d="M42.98,194.77c-.31.29-.37.68-.19,1.16.18.48.59,1.24,1.23,2.27.63,1.03,1.08,1.86,1.33,2.48.92,2.38.42,4.4-1.48,6.06-1.28,1.05-2.5,1.65-3.65,1.8-1.15.15-2.21-.03-3.18-.55-.97-.52-1.92-1.29-2.86-2.32-.18-.19-.43-.47-.74-.86-.72-.89-1.31-1.74-1.76-2.54-.45-.8-.77-1.47-.97-2.01-.2-.54-.28-.83-.25-.85l3.1-3.5c-.01.52.09,1.34.32,2.44.23,1.11.75,2.19,1.57,3.26.91,1.12,1.69,1.81,2.34,2.07.65.26,1.3.14,1.93-.38.55-.5.79-1.04.7-1.63-.09-.59-.34-1.22-.75-1.89-.41-.67-.93-1.5-1.55-2.5-.62-1.15-.89-2.21-.81-3.21.07-.99.71-1.98,1.9-2.95.18-.15.51-.39.99-.72,1.36-.87,2.94-1,4.75-.39.99.34,2.06,1.13,3.2,2.37.21.22.5.55.86,1,.94,1.16,1.62,2.19,2.05,3.09.43.91.69,1.54.79,1.91l-2.26,3.09s-.1-.31-.3-.92c-.19-.61-.49-1.3-.89-2.09-.4-.79-.94-1.61-1.62-2.45-1.42-1.74-2.68-2.16-3.8-1.25Z"/>
          <path class="cls-1" d="M47.61,215.41l-2.49,1.43-2.82-2.48,16.72-9.73,3.53,3.11-7.38,17.96-4.15-3.66,1.1-2.65-4.52-3.98ZM53.4,216.27l2.28-5.5-5.15,2.97,2.87,2.53Z"/>
          <path class="cls-1" d="M73.65,215.95l-10.28,15.22-4.31-2.93,10.28-15.22,4.31,2.93Z"/>
          <path class="cls-1" d="M80.83,232.14l4.85-9.52,3.37,1.73-8.33,16.37-5.1-2.62.42-12.23-5.03,9.87-3.41-1.75,8.34-16.37,5.46,2.8-.56,11.71Z"/>
          <path class="cls-1" d="M90.79,241.56l-1.68,2.33-3.59-1.1,11.26-15.76,4.5,1.38.63,19.42-5.28-1.62-.08-2.87-5.76-1.77ZM96.43,239.95l-.18-5.96-3.47,4.83,3.65,1.12Z"/>
          <path class="cls-1" d="M120.52,239.74l-4.96,10.77-3.07-11.56-1.12,10.43-3.77-.41,1.96-18.27,6.16.66,1.75,7.57,3.5-7,5.6.6-1.96,18.27-5.21-.56,1.13-10.51Z"/>
          <path class="cls-1" d="M128.73,232.49l5.76-.43,3.02,4.92,2.27-5.31,4.31-.32-4.5,9.78.65,8.93-5.16.38-.65-8.93-5.71-9.03Z"/>
          <path class="cls-1" d="M146.52,230.82l11.69-2.73.7,3.04-6.62,1.54.93,4.03,5.42-1.26.7,3.04-5.41,1.26,1.1,4.75,6.72-1.57.7,3.04-11.79,2.75-4.15-17.9Z"/>
          <path class="cls-1" d="M174.71,233.18l-4.02-9.9,3.51-1.43,6.91,17.02-5.31,2.17-8.95-8.31,4.16,10.26-3.55,1.45-6.91-17.02,5.68-2.32,8.48,8.08Z"/>
          <path class="cls-1" d="M199.74,218.33l7.85,3.34-4.47,3.37-8.98-4.76,1.62-1.2c.45-.34.75-.83.88-1.49.14-.66-.12-1.42-.76-2.28-1.26-1.71-2.53-2.1-3.81-1.15l-1.59,1.18,9.08,12.29-4.18,3.11-10.91-14.77,7.25-5.39c1.38-1.02,2.76-1.48,4.14-1.36,1.39.11,2.67.97,3.86,2.58.74,1.01,1.19,1.91,1.33,2.72.15.81.12,1.48-.08,2.01-.2.53-.45.95-.75,1.27-.3.32-.47.49-.5.52Z"/>
          <path class="cls-1" d="M203.97,199.49c1.01-1.04,2.12-1.64,3.35-1.79,1.22-.15,2.48.09,3.78.72,1.29.63,2.59,1.58,3.89,2.84,1.44,1.41,2.48,2.77,3.11,4.1.63,1.33.85,2.59.65,3.78-.2,1.19-.8,2.3-1.78,3.32l-5.73,5.91-13.14-12.81,5.88-6.06ZM212.34,203.99c-2.89-2.82-5.17-3.38-6.84-1.66l-1.58,1.63,8.74,8.52,1.48-1.53c1.73-1.78,1.13-4.1-1.8-6.96Z"/>
          <path class="cls-1" d="M224.49,203.82l-3.34-2.57,2.85-3.72,3.34,2.57-2.85,3.72Z"/>
        </g>
        <g>
          <path class="cls-1" d="M42.98,194.77c-.31.29-.37.68-.19,1.16.18.48.59,1.24,1.23,2.27.63,1.03,1.08,1.86,1.33,2.48.92,2.38.42,4.4-1.48,6.06-1.28,1.05-2.5,1.65-3.65,1.8-1.15.15-2.21-.03-3.18-.55-.97-.52-1.92-1.29-2.86-2.32-.18-.19-.43-.47-.74-.86-.72-.89-1.31-1.74-1.76-2.54-.45-.8-.77-1.47-.97-2.01-.2-.54-.28-.83-.25-.85l3.1-3.5c-.01.52.09,1.34.32,2.44.23,1.11.75,2.19,1.57,3.26.91,1.12,1.69,1.81,2.34,2.07.65.26,1.3.14,1.93-.38.55-.5.79-1.04.7-1.63-.09-.59-.34-1.22-.75-1.89-.41-.67-.93-1.5-1.55-2.5-.62-1.15-.89-2.21-.81-3.21.07-.99.71-1.98,1.9-2.95.18-.15.51-.39.99-.72,1.36-.87,2.94-1,4.75-.39.99.34,2.06,1.13,3.2,2.37.21.22.5.55.86,1,.94,1.16,1.62,2.19,2.05,3.09.43.91.69,1.54.79,1.91l-2.26,3.09s-.1-.31-.3-.92c-.19-.61-.49-1.3-.89-2.09-.4-.79-.94-1.61-1.62-2.45-1.42-1.74-2.68-2.16-3.8-1.25Z"/>
          <path class="cls-1" d="M47.61,215.41l-2.49,1.43-2.82-2.48,16.72-9.73,3.53,3.11-7.38,17.96-4.15-3.66,1.1-2.65-4.52-3.98ZM53.4,216.27l2.28-5.5-5.15,2.97,2.87,2.53Z"/>
          <path class="cls-1" d="M73.65,215.95l-10.28,15.22-4.31-2.93,10.28-15.22,4.31,2.93Z"/>
          <path class="cls-1" d="M80.83,232.14l4.85-9.52,3.37,1.73-8.33,16.37-5.1-2.62.42-12.23-5.03,9.87-3.41-1.75,8.34-16.37,5.46,2.8-.56,11.71Z"/>
          <path class="cls-1" d="M90.79,241.56l-1.68,2.33-3.59-1.1,11.26-15.76,4.5,1.38.63,19.42-5.28-1.62-.08-2.87-5.76-1.77ZM96.43,239.95l-.18-5.96-3.47,4.83,3.65,1.12Z"/>
          <path class="cls-1" d="M120.52,239.74l-4.96,10.77-3.07-11.56-1.12,10.43-3.77-.41,1.96-18.27,6.16.66,1.75,7.57,3.5-7,5.6.6-1.96,18.27-5.21-.56,1.13-10.51Z"/>
          <path class="cls-1" d="M128.73,232.49l5.76-.43,3.02,4.92,2.27-5.31,4.31-.32-4.5,9.78.65,8.93-5.16.38-.65-8.93-5.71-9.03Z"/>
          <path class="cls-1" d="M146.52,230.82l11.69-2.73.7,3.04-6.62,1.54.93,4.03,5.42-1.26.7,3.04-5.41,1.26,1.1,4.75,6.72-1.57.7,3.04-11.79,2.75-4.15-17.9Z"/>
          <path class="cls-1" d="M174.71,233.18l-4.02-9.9,3.51-1.43,6.91,17.02-5.31,2.17-8.95-8.31,4.16,10.26-3.55,1.45-6.91-17.02,5.68-2.32,8.48,8.08Z"/>
          <path class="cls-1" d="M199.74,218.33l7.85,3.34-4.47,3.37-8.98-4.76,1.62-1.2c.45-.34.75-.83.88-1.49.14-.66-.12-1.42-.76-2.28-1.26-1.71-2.53-2.1-3.81-1.15l-1.59,1.18,9.08,12.29-4.18,3.11-10.91-14.77,7.25-5.39c1.38-1.02,2.76-1.48,4.14-1.36,1.39.11,2.67.97,3.86,2.58.74,1.01,1.19,1.91,1.33,2.72.15.81.12,1.48-.08,2.01-.2.53-.45.95-.75,1.27-.3.32-.47.49-.5.52Z"/>
          <path class="cls-1" d="M203.97,199.49c1.01-1.04,2.12-1.64,3.35-1.79,1.22-.15,2.48.09,3.78.72,1.29.63,2.59,1.58,3.89,2.84,1.44,1.41,2.48,2.77,3.11,4.1.63,1.33.85,2.59.65,3.78-.2,1.19-.8,2.3-1.78,3.32l-5.73,5.91-13.14-12.81,5.88-6.06ZM212.34,203.99c-2.89-2.82-5.17-3.38-6.84-1.66l-1.58,1.63,8.74,8.52,1.48-1.53c1.73-1.78,1.13-4.1-1.8-6.96Z"/>
          <path class="cls-1" d="M224.49,203.82l-3.34-2.57,2.85-3.72,3.34,2.57-2.85,3.72Z"/>
        </g>
      </g>
    </g>
  </g>
</svg>